<svg width="735" height="357" viewBox="0 0 735 357" fill="none" xmlns="http://www.w3.org/2000/svg"><path d="M0 292.5H735" stroke="white" stroke-opacity="0.08" stroke-dasharray="7 4"/><path d="M465.865 0L465.865 357" stroke="white" stroke-opacity="0.08" stroke-dasharray="7 4"/><path d="M269.134 0L269.134 357" stroke="white" stroke-opacity="0.08" stroke-dasharray="7 4"/><path d="M0 212.5H735" stroke="white" stroke-opacity="0.08" stroke-dasharray="7 4"/><path d="M0 99.5H735" stroke="white" stroke-opacity="0.08" stroke-dasharray="7 4"/><path d="M62.5 296L135 301.5" stroke="white" stroke-opacity="0.08" stroke-dasharray="7 4"/><path d="M571 63.5L517.5 179" stroke="white" stroke-opacity="0.08" stroke-dasharray="7 4"/><path d="M606.5 101.5L516.5 179" stroke="white" stroke-opacity="0.08" stroke-dasharray="7 4"/><path d="M701 250L606.5 101.5" stroke="white" stroke-opacity="0.08" stroke-dasharray="7 4"/><path d="M217.5 43.5L168 220" stroke="white" stroke-opacity="0.08" stroke-dasharray="7 4"/><path d="M0 99.5H735" stroke="white" stroke-opacity="0.08" stroke-dasharray="7 4"/><g opacity="0.94"><g clip-path="url(#clip0_6325_47787)"><rect x="102" y="36" width="58" height="58" rx="29" fill="#3D4B41"/></g></g><g opacity="0.94"><g clip-path="url(#clip1_6325_47787)"><rect x="499" y="160" width="35" height="35" rx="17.5" fill="white" fill-opacity="0.9"/></g><rect x="498.5" y="159.5" width="36" height="36" rx="18" stroke="#3D4B41"/></g><g opacity="0.94"><g clip-path="url(#clip2_6325_47787)"><rect x="52" y="250" width="21" height="21" rx="10.5" fill="white" fill-opacity="0.9"/></g><rect x="51.5" y="249.5" width="22" height="22" rx="11" stroke="#3D4B41"/></g><g opacity="0.94"><g clip-path="url(#clip3_6325_47787)"><rect x="601" y="96" width="11" height="11" rx="5.5" fill="white" fill-opacity="0.9"/></g><rect x="600.5" y="95.5" width="12" height="12" rx="6" stroke="#3D4B41"/></g><g opacity="0.94"><g clip-path="url(#clip4_6325_47787)"><rect x="212" y="38" width="11" height="11" rx="5.5" fill="white" fill-opacity="0.9"/></g><rect x="211.5" y="37.5" width="12" height="12" rx="6" stroke="#3D4B41"/></g><path d="M138.97 229.619C146.123 219.805 157.535 214 169.68 214H566.32C578.465 214 589.877 219.805 597.03 229.619L651.788 304.754C658.53 314.006 651.922 327 640.474 327H95.5265C84.0781 327 77.4695 314.006 84.2123 304.754L138.97 229.619Z" fill="#3D4B41"/><path d="M566.32 213.25H169.68C157.296 213.25 145.658 219.169 138.364 229.177L83.6062 304.313C76.5022 314.06 83.4648 327.75 95.5265 327.75H640.474C652.535 327.75 659.498 314.06 652.394 304.313L597.636 229.177C590.342 219.169 578.704 213.25 566.32 213.25Z" stroke="white" stroke-opacity="0.6" stroke-width="1.5" stroke-miterlimit="10"/><path d="M504.886 204.854H231.114C225.845 204.854 220.959 207.609 218.232 212.117L180.953 273.742C174.883 283.776 182.108 296.591 193.835 296.591H542.165C553.892 296.591 561.117 283.776 555.047 273.742L517.768 212.117C515.041 207.609 510.155 204.854 504.886 204.854Z" fill="white" fill-opacity="0.94" stroke="#3D4B41" stroke-width="0.980645"/><path d="M461.557 234.445C461.557 241.871 419.921 257 368.56 257C317.199 257 275.562 241.871 275.562 234.445C275.562 227.02 317.199 221 368.56 221C419.921 221 461.557 227.02 461.557 234.445Z" fill="#E1E1E1"/><path fill-rule="evenodd" clip-rule="evenodd" d="M422.679 99.2701C434.572 89.37 447.844 85.6034 460.57 86.5555C474.147 87.5713 486.711 93.9195 496.093 103.14C505.476 112.362 511.921 124.696 512.953 138.008C513.995 151.441 509.486 165.51 497.599 177.857C496.512 178.994 495.401 180.116 494.266 181.225C440.352 234.206 368.734 234.345 368.001 234.346H367.997C367.631 234.346 295.786 234.343 241.732 181.217L241.72 181.206C240.604 180.102 239.505 178.992 238.422 177.874L238.414 177.865C226.521 165.528 222.009 151.462 223.046 138.03C224.075 124.721 230.516 112.385 239.896 103.16C249.276 93.936 261.838 87.5827 275.417 86.5626C288.143 85.6065 301.416 89.3686 313.317 99.2639C314.597 84.0017 321.264 72.1233 330.942 63.9571C341.264 55.2475 354.715 51 367.998 51C381.281 51 394.731 55.2475 405.053 63.9571C414.733 72.1244 421.4 84.0049 422.679 99.2701ZM370.466 228.974L370.463 228.906L370.468 228.906L370.466 228.974ZM365.53 228.974L365.528 228.906L365.532 228.906L365.53 228.974Z" fill="#3D4B41"/><path fill-rule="evenodd" clip-rule="evenodd" d="M409.014 155.406C407.539 155.406 407.029 157.499 407.969 158.608C409.635 160.573 410.638 163.1 410.638 165.857C410.638 172.113 405.477 177.185 399.111 177.185C392.746 177.185 387.585 172.113 387.585 165.857C387.585 165.522 387.141 165.356 386.94 165.627C385.122 168.081 383.895 170.836 383.39 173.728C383.106 175.358 381.759 176.706 380.066 176.706H379.132C376.922 176.706 375.1 174.946 375.426 172.813C377.661 158.197 392.319 147.596 409.014 147.596C425.709 147.596 440.367 158.197 442.602 172.813C442.928 174.946 441.106 176.706 438.896 176.706C436.687 176.706 434.938 174.938 434.458 172.833C432.272 163.252 422.142 155.406 409.014 155.406ZM306.659 165.857C306.659 165.415 306.077 165.179 305.803 165.53C303.86 168.022 302.536 170.844 301.975 173.819C301.644 175.576 300.19 177.036 298.36 177.036H297.674C295.464 177.036 293.642 175.276 293.968 173.143C296.202 158.519 310.861 147.926 327.556 147.926C344.251 147.926 358.91 158.519 361.144 173.143C361.47 175.276 359.648 177.036 357.438 177.036C355.229 177.036 353.48 175.267 353 173.162C350.816 163.576 340.686 155.736 327.556 155.736C326.363 155.736 325.926 157.382 326.725 158.248C328.581 160.259 329.712 162.928 329.712 165.857C329.712 172.113 324.552 177.185 318.186 177.185C311.82 177.185 306.659 172.113 306.659 165.857ZM381.331 193.176C382.893 191.65 385.306 190.908 387.245 191.942C389.183 192.976 389.919 195.377 388.522 197.047C383.971 202.488 376.604 205.935 368.478 205.935C360.357 205.935 352.973 202.524 348.416 197.043C347.024 195.368 347.769 192.97 349.711 191.942C351.654 190.915 354.063 191.666 355.622 193.194C358.626 196.137 363.183 198.126 368.478 198.126C373.759 198.126 378.321 196.116 381.331 193.176Z" fill="white" fill-opacity="0.9"/><g opacity="0.94"><g clip-path="url(#clip5_6325_47787)"><rect x="695" y="245" width="11" height="11" rx="5.5" fill="white" fill-opacity="0.9"/></g><rect x="694.5" y="244.5" width="12" height="12" rx="6" stroke="#3D4B41"/></g><path opacity="0.94" d="M607.206 190.962L607.208 190.959L609.293 185.222C609.618 184.328 610.322 183.624 611.216 183.299L616.948 181.213C616.949 181.213 616.95 181.213 616.95 181.213C617.406 181.05 617.801 180.749 618.078 180.353C618.356 179.956 618.503 179.484 618.5 179C618.503 178.516 618.356 178.044 618.078 177.647C617.801 177.251 617.406 176.95 616.95 176.787C616.949 176.787 616.949 176.787 616.948 176.787L611.219 174.709C610.324 174.384 609.618 173.679 609.293 172.783L607.208 167.041L607.208 167.041L607.206 167.038C607.039 166.586 606.737 166.197 606.342 165.922C605.947 165.647 605.477 165.5 604.996 165.5C604.515 165.5 604.045 165.647 603.65 165.922C603.255 166.197 602.953 166.586 602.786 167.038L602.784 167.041L600.706 172.775C600.381 173.671 599.676 174.376 598.781 174.702L593.04 176.788L593.04 176.788L593.037 176.789C592.586 176.957 592.197 177.258 591.922 177.654C591.647 178.049 591.5 178.519 591.5 179C591.5 179.481 591.647 179.951 591.922 180.346C592.197 180.742 592.586 181.043 593.037 181.211L593.041 181.212L598.773 183.291C599.668 183.616 600.374 184.321 600.699 185.217L602.784 190.959L602.786 190.962C602.953 191.414 603.255 191.803 603.65 192.078C604.045 192.353 604.515 192.5 604.996 192.5C605.477 192.5 605.947 192.353 606.342 192.078C606.737 191.803 607.039 191.414 607.206 190.962Z" fill="white" fill-opacity="0.9" stroke="#3D4B41"/><path opacity="0.94" d="M157.206 74.9623L157.208 74.9592L159.293 69.2224C159.618 68.3282 160.322 67.6238 161.216 67.2986L166.948 65.2132C166.949 65.213 166.95 65.2128 166.95 65.2125C167.406 65.0499 167.801 64.7493 168.078 64.3525C168.356 63.9563 168.503 63.4836 168.5 63C168.503 62.5164 168.356 62.0437 168.078 61.6475C167.801 61.2506 167.406 60.95 166.95 60.7874C166.949 60.7872 166.949 60.787 166.948 60.7868L161.219 58.7087C160.324 58.384 159.618 57.6788 159.293 56.7832L157.208 51.0409L157.208 51.0409L157.206 51.0377C157.039 50.5864 156.737 50.1971 156.342 49.9222C155.947 49.6474 155.477 49.5 154.996 49.5C154.515 49.5 154.045 49.6474 153.65 49.9222C153.255 50.1971 152.953 50.5864 152.786 51.0377L152.784 51.0412L150.706 56.775C150.381 57.6708 149.676 58.3764 148.781 58.7017L143.04 60.7879L143.04 60.7879L143.037 60.7891C142.586 60.9567 142.197 61.2583 141.922 61.6536C141.647 62.0488 141.5 62.5186 141.5 63C141.5 63.4814 141.647 63.9512 141.922 64.3464C142.197 64.7417 142.586 65.0433 143.037 65.2109L143.041 65.2122L148.773 67.2913C149.668 67.616 150.374 68.3212 150.699 69.2168L152.784 74.9591L152.786 74.9623C152.953 75.4136 153.255 75.8029 153.65 76.0778C154.045 76.3526 154.515 76.5 154.996 76.5C155.477 76.5 155.947 76.3526 156.342 76.0778C156.737 75.8029 157.039 75.4136 157.206 74.9623Z" fill="white" fill-opacity="0.9" stroke="#3D4B41"/><path opacity="0.94" d="M633.838 216.568L633.838 216.568C633.736 216.842 633.553 217.078 633.314 217.244C633.074 217.411 632.79 217.5 632.498 217.5C632.206 217.5 631.922 217.411 631.682 217.244C631.443 217.078 631.26 216.842 631.158 216.568L631.157 216.565L631.157 216.565L630.114 213.694C629.977 213.316 629.679 213.018 629.301 212.881L626.435 211.841L626.432 211.84L626.432 211.84C626.158 211.738 625.922 211.555 625.756 211.316C625.589 211.076 625.5 210.792 625.5 210.5C625.5 210.208 625.589 209.924 625.756 209.684C625.922 209.445 626.158 209.262 626.432 209.16L626.435 209.159L626.435 209.159L629.305 208.116C629.683 207.979 629.981 207.681 630.118 207.302L631.157 204.435L631.158 204.432L631.158 204.432C631.26 204.158 631.443 203.922 631.682 203.756C631.922 203.589 632.206 203.5 632.498 203.5C632.79 203.5 633.074 203.589 633.314 203.756C633.553 203.922 633.736 204.158 633.838 204.432L633.839 204.435L633.839 204.435L634.882 207.306C635.019 207.684 635.317 207.982 635.695 208.119L638.558 209.158C638.559 209.158 638.559 209.158 638.56 209.158C638.836 209.257 639.075 209.44 639.244 209.68C639.412 209.921 639.501 210.207 639.5 210.5C639.5 210.501 639.5 210.503 639.5 210.504L639 210.5C639.001 210.691 638.944 210.877 638.834 211.033C638.725 211.189 638.57 211.307 638.39 211.371L633.838 216.568ZM633.838 216.568L633.839 216.565L634.881 213.697C635.018 213.319 635.316 213.022 635.693 212.884L638.558 211.842C638.559 211.842 638.559 211.842 638.56 211.841L633.838 216.568Z" fill="white" fill-opacity="0.9" stroke="#3D4B41"/><path opacity="0.94" d="M167.838 104.568L167.838 104.568C167.736 104.842 167.553 105.078 167.314 105.244C167.074 105.411 166.79 105.5 166.498 105.5C166.206 105.5 165.922 105.411 165.682 105.244C165.443 105.078 165.26 104.842 165.158 104.568L165.157 104.565L165.157 104.565L164.114 101.694C163.977 101.316 163.679 101.018 163.301 100.881L160.435 99.8411L160.432 99.8398L160.432 99.8398C160.158 99.7383 159.922 99.5554 159.756 99.3159C159.589 99.0764 159.5 98.7917 159.5 98.5C159.5 98.2083 159.589 97.9236 159.756 97.6841C159.922 97.4446 160.158 97.2617 160.432 97.1602L160.435 97.159L160.435 97.159L163.305 96.1159C163.683 95.9785 163.981 95.6806 164.118 95.3023L165.157 92.4354L165.158 92.4319L165.158 92.4319C165.26 92.1584 165.443 91.9225 165.682 91.7559C165.922 91.5893 166.206 91.5 166.498 91.5C166.79 91.5 167.074 91.5893 167.314 91.7559C167.553 91.9225 167.736 92.1584 167.838 92.4319L167.839 92.4351L167.839 92.4351L168.882 95.3063C169.019 95.6845 169.317 95.9822 169.695 96.1193L172.558 97.1578C172.559 97.158 172.559 97.1582 172.56 97.1584C172.836 97.2572 173.075 97.4396 173.244 97.6804C173.412 97.9206 173.501 98.2069 173.5 98.5C173.5 98.5013 173.5 98.5026 173.5 98.5039L173 98.5C173.001 98.6905 172.944 98.8768 172.834 99.0329C172.725 99.189 172.57 99.3072 172.39 99.3711L167.838 104.568ZM167.838 104.568L167.839 104.565L168.881 101.697C169.018 101.319 169.316 101.022 169.693 100.884L172.558 99.8422C172.559 99.8419 172.559 99.8417 172.56 99.8415L167.838 104.568Z" fill="white" fill-opacity="0.9" stroke="#3D4B41"/><path opacity="0.94" d="M495.373 109.192L495.372 109.195C495.23 109.578 494.974 109.909 494.639 110.142C494.304 110.375 493.905 110.5 493.497 110.5C493.088 110.5 492.69 110.375 492.355 110.142C492.019 109.909 491.763 109.578 491.621 109.195L491.62 109.192L489.936 104.554C489.683 103.857 489.134 103.309 488.438 103.056L483.808 101.377L483.804 101.376C483.421 101.234 483.091 100.978 482.858 100.642C482.625 100.307 482.5 99.9084 482.5 99.5C482.5 99.0916 482.625 98.6929 482.858 98.3576C483.091 98.0223 483.421 97.7663 483.804 97.6242L483.808 97.623L483.808 97.623L488.444 95.9379C489.14 95.6849 489.689 95.1361 489.941 94.4394L491.62 89.8082L491.621 89.8047C491.763 89.4218 492.019 89.0915 492.355 88.8583C492.69 88.625 493.088 88.5 493.497 88.5C493.905 88.5 494.304 88.625 494.639 88.8583C494.974 89.0915 495.23 89.4218 495.372 89.8047L495.373 89.8079L495.373 89.8079L497.058 94.4459C497.311 95.1425 497.86 95.691 498.556 95.9436L503.183 97.6218C503.183 97.622 503.184 97.6222 503.184 97.6224C503.572 97.7605 503.906 98.0156 504.142 98.3524C504.377 98.6887 504.502 99.0897 504.5 99.5C504.5 99.5013 504.5 99.5026 504.5 99.5039L504 99.5C504.002 99.8078 503.909 100.109 503.732 100.361C503.556 100.613 503.305 100.804 503.015 100.907L495.373 109.192ZM495.373 109.192L497.057 104.559C497.31 103.863 497.858 103.315 498.553 103.062L503.183 101.378C503.183 101.378 503.184 101.378 503.185 101.377L495.373 109.192Z" fill="white" fill-opacity="0.9" stroke="#3D4B41"/><path opacity="0.94" d="M478.704 123.661L478.704 123.661L478.705 123.658L479.587 121.231C479.696 120.933 479.93 120.698 480.228 120.59L482.652 119.708C482.652 119.708 482.653 119.708 482.654 119.707C482.903 119.618 483.118 119.454 483.269 119.238C483.421 119.021 483.501 118.764 483.5 118.5C483.501 118.236 483.421 117.979 483.269 117.762C483.118 117.546 482.902 117.381 482.653 117.292C482.653 117.292 482.652 117.292 482.652 117.292L480.23 116.413C479.931 116.305 479.696 116.07 479.587 115.771L478.705 113.342L478.705 113.342L478.704 113.339C478.613 113.093 478.448 112.88 478.233 112.73C478.017 112.58 477.761 112.5 477.498 112.5C477.236 112.5 476.98 112.58 476.764 112.73C476.549 112.88 476.384 113.093 476.293 113.339L476.293 113.339L476.291 113.342L475.412 115.768C475.304 116.067 475.069 116.302 474.77 116.41L472.342 117.293L472.342 117.293L472.338 117.294C472.092 117.386 471.88 117.55 471.73 117.766C471.58 117.981 471.5 118.237 471.5 118.5C471.5 118.763 471.58 119.019 471.73 119.234C471.88 119.45 472.092 119.614 472.338 119.706L472.338 119.706L472.342 119.707L474.767 120.587C475.066 120.695 475.301 120.93 475.409 121.229L476.292 123.658L476.292 123.658L476.293 123.661C476.384 123.907 476.549 124.12 476.764 124.27C476.98 124.42 477.236 124.5 477.498 124.5C477.761 124.5 478.017 124.42 478.233 124.27C478.448 124.12 478.613 123.907 478.704 123.661Z" fill="white" fill-opacity="0.9" stroke="#3D4B41"/><path opacity="0.94" d="M131.704 81.6613L131.704 81.6613L131.705 81.6582L132.587 79.2311C132.696 78.9329 132.93 78.6981 133.228 78.5897L135.652 77.7081C135.652 77.7079 135.653 77.7077 135.654 77.7075C135.903 77.6185 136.118 77.4543 136.269 77.2376C136.421 77.0215 136.501 76.7638 136.5 76.5C136.501 76.2363 136.421 75.9785 136.269 75.7624C136.118 75.5456 135.902 75.3814 135.653 75.2924C135.653 75.2922 135.652 75.292 135.652 75.2919L133.23 74.4133C132.931 74.305 132.696 74.07 132.587 73.7714L131.705 71.3419L131.705 71.3419L131.704 71.3387C131.613 71.0925 131.448 70.8802 131.233 70.7303C131.017 70.5804 130.761 70.5 130.498 70.5C130.236 70.5 129.98 70.5804 129.764 70.7303C129.549 70.8802 129.384 71.0925 129.293 71.3387L129.293 71.3387L129.291 71.3422L128.412 73.7681C128.304 74.0667 128.069 74.3019 127.77 74.4104L125.342 75.293L125.342 75.293L125.338 75.2942C125.092 75.3856 124.88 75.5501 124.73 75.7657C124.58 75.9812 124.5 76.2375 124.5 76.5C124.5 76.7625 124.58 77.0188 124.73 77.2343C124.88 77.4499 125.092 77.6144 125.338 77.7058L125.338 77.7058L125.342 77.7071L127.767 78.5867C128.066 78.695 128.301 78.93 128.409 79.2286L129.292 81.6581L129.292 81.6581L129.293 81.6613C129.384 81.9075 129.549 82.1198 129.764 82.2697C129.98 82.4196 130.236 82.5 130.498 82.5C130.761 82.5 131.017 82.4196 131.233 82.2697C131.448 82.1198 131.613 81.9075 131.704 81.6613Z" fill="white" fill-opacity="0.9" stroke="#3D4B41"/><path opacity="0.94" d="M91.4366 46.8477L91.4366 46.8477L91.4378 46.8446L91.9991 45.3001C92.0497 45.1609 92.1593 45.0513 92.2983 45.0007L93.8413 44.4394C94.035 44.37 94.2024 44.2422 94.3204 44.0736C94.4381 43.9055 94.5008 43.7051 94.5 43.5C94.5008 43.2949 94.4381 43.0945 94.3204 42.9264C94.2024 42.7577 94.0349 42.6298 93.8411 42.5605L92.299 42.0012C92.1597 41.9506 92.0499 41.8409 91.9993 41.7015L91.4378 40.1555L91.4378 40.1555L91.4366 40.1523C91.3656 39.9608 91.2377 39.7957 91.07 39.6791C90.9024 39.5625 90.7031 39.5 90.4989 39.5C90.2947 39.5 90.0954 39.5625 89.9278 39.6791C89.7602 39.7957 89.6323 39.9608 89.5613 40.1523L89.5613 40.1523L89.56 40.1558L89.0004 41.6995C88.9498 41.839 88.8401 41.9488 88.7009 41.9994L87.1553 42.561L87.1553 42.561L87.1521 42.5622C86.9606 42.6333 86.7956 42.7613 86.679 42.9289C86.5625 43.0966 86.5 43.2958 86.5 43.5C86.5 43.7042 86.5625 43.9034 86.679 44.0711C86.7956 44.2387 86.9606 44.3667 87.1521 44.4378L87.1521 44.4378L87.1556 44.4391L88.6989 44.9988C88.8382 45.0494 88.9479 45.1591 88.9986 45.2985L89.5601 46.8445L89.5601 46.8445L89.5613 46.8477C89.6323 47.0392 89.7602 47.2043 89.9278 47.3209C90.0954 47.4375 90.2947 47.5 90.4989 47.5C90.7031 47.5 90.9024 47.4375 91.07 47.3209C91.2377 47.2043 91.3656 47.0392 91.4366 46.8477Z" fill="white" fill-opacity="0.9" stroke="#3D4B41"/><path opacity="0.94" d="M39.7039 130.661L39.7039 130.661L39.7051 130.658L40.5872 128.231C40.6955 127.933 40.9303 127.698 41.2283 127.59L43.6517 126.708C43.6524 126.708 43.653 126.708 43.6536 126.707C43.9026 126.618 44.1178 126.454 44.2694 126.238C44.4207 126.021 44.5012 125.764 44.5 125.5C44.5012 125.236 44.4207 124.979 44.2694 124.762C44.1178 124.546 43.9024 124.381 43.6533 124.292C43.6528 124.292 43.6523 124.292 43.6517 124.292L41.2296 123.413C40.9311 123.305 40.6959 123.07 40.5875 122.771L39.7051 120.342L39.7051 120.342L39.7039 120.339C39.6126 120.093 39.4481 119.88 39.2326 119.73C39.0171 119.58 38.7609 119.5 38.4983 119.5C38.2358 119.5 37.9795 119.58 37.764 119.73C37.5485 119.88 37.3841 120.093 37.2927 120.339L37.2927 120.339L37.2914 120.342L36.4121 122.768C36.3038 123.067 36.0688 123.302 35.7704 123.41L33.3417 124.293L33.3417 124.293L33.3384 124.294C33.0923 124.386 32.88 124.55 32.7302 124.766C32.5803 124.981 32.5 125.237 32.5 125.5C32.5 125.763 32.5803 126.019 32.7302 126.234C32.88 126.45 33.0923 126.614 33.3384 126.706L33.3384 126.706L33.342 126.707L35.7671 127.587C36.0655 127.695 36.3007 127.93 36.4092 128.229L37.2915 130.658L37.2915 130.658L37.2927 130.661C37.3841 130.907 37.5485 131.12 37.764 131.27C37.9795 131.42 38.2358 131.5 38.4983 131.5C38.7609 131.5 39.0171 131.42 39.2326 131.27C39.4481 131.12 39.6126 130.907 39.7039 130.661Z" fill="white" fill-opacity="0.9" stroke="#3D4B41"/><path opacity="0.94" d="M449.704 77.6613L449.704 77.6613L449.705 77.6582L450.587 75.2311C450.696 74.9329 450.93 74.6981 451.228 74.5897L453.652 73.7081C453.652 73.7079 453.653 73.7077 453.654 73.7075C453.903 73.6185 454.118 73.4543 454.269 73.2376C454.421 73.0215 454.501 72.7638 454.5 72.5C454.501 72.2363 454.421 71.9785 454.269 71.7624C454.118 71.5456 453.902 71.3814 453.653 71.2924C453.653 71.2922 453.652 71.292 453.652 71.2919L451.23 70.4133C450.931 70.305 450.696 70.07 450.587 69.7714L449.705 67.3419L449.705 67.3419L449.704 67.3387C449.613 67.0925 449.448 66.8802 449.233 66.7303C449.017 66.5804 448.761 66.5 448.498 66.5C448.236 66.5 447.98 66.5804 447.764 66.7303C447.549 66.8802 447.384 67.0925 447.293 67.3387L447.293 67.3387L447.291 67.3422L446.412 69.7681C446.304 70.0667 446.069 70.3019 445.77 70.4104L443.342 71.293L443.342 71.293L443.338 71.2942C443.092 71.3856 442.88 71.5501 442.73 71.7657C442.58 71.9812 442.5 72.2375 442.5 72.5C442.5 72.7625 442.58 73.0188 442.73 73.2343C442.88 73.4499 443.092 73.6144 443.338 73.7058L443.338 73.7058L443.342 73.7071L445.767 74.5867C446.066 74.695 446.301 74.93 446.409 75.2286L447.292 77.6581L447.292 77.6581L447.293 77.6613C447.384 77.9075 447.549 78.1198 447.764 78.2697C447.98 78.4196 448.236 78.5 448.498 78.5C448.761 78.5 449.017 78.4196 449.233 78.2697C449.448 78.1198 449.613 77.9075 449.704 77.6613Z" fill="white" fill-opacity="0.9" stroke="#3D4B41"/><g opacity="0.94"><g clip-path="url(#clip6_6325_47787)"><rect x="560" y="53" width="23" height="23" rx="11.5" fill="white" fill-opacity="0.9"/></g><rect x="559.5" y="52.5" width="24" height="24" rx="12" stroke="#3D4B41"/></g><path d="M167.5 218.5L135 266.5" stroke="white" stroke-opacity="0.08" stroke-dasharray="7 4"/><path d="M167.5 218.5L108 153" stroke="white" stroke-opacity="0.08" stroke-dasharray="7 4"/><g opacity="0.94"><g clip-path="url(#clip7_6325_47787)"><rect x="149" y="200" width="35" height="35" rx="17.5" fill="white" fill-opacity="0.9"/></g><rect x="148.5" y="199.5" width="36" height="36" rx="18" stroke="#3D4B41"/></g><g opacity="0.94"><g clip-path="url(#clip8_6325_47787)"><rect x="129" y="261" width="11" height="11" rx="5.5" fill="white" fill-opacity="0.9"/></g><rect x="128.5" y="260.5" width="12" height="12" rx="6" stroke="#3D4B41"/></g><path opacity="0.94" d="M532.404 52.5215L532.406 52.5184L533.528 49.4294C533.68 49.012 534.009 48.6832 534.426 48.5315L537.511 47.4092C537.512 47.4089 537.512 47.4087 537.513 47.4085C537.803 47.3048 538.054 47.1133 538.231 46.8606C538.408 46.6084 538.502 46.3077 538.5 46C538.502 45.6923 538.408 45.3916 538.231 45.1394C538.054 44.8866 537.803 44.6951 537.513 44.5914C537.512 44.5912 537.512 44.591 537.511 44.5908L534.428 43.4724C534.01 43.3208 533.68 42.9917 533.529 42.5737L532.406 39.4817L532.406 39.4817L532.404 39.4785C532.298 39.1913 532.106 38.9436 531.855 38.7687C531.603 38.5938 531.304 38.5 530.998 38.5C530.692 38.5 530.393 38.5938 530.141 38.7687C529.89 38.9436 529.698 39.1913 529.591 39.4785L529.591 39.4785L529.59 39.482L528.471 42.5694C528.319 42.9875 527.99 43.3168 527.572 43.4687L524.481 44.592L524.481 44.592L524.478 44.5932C524.191 44.6998 523.943 44.8918 523.769 45.1433C523.594 45.3947 523.5 45.6937 523.5 46C523.5 46.3063 523.594 46.6053 523.769 46.8567C523.943 47.1082 524.191 47.3002 524.478 47.4068L524.482 47.4081L527.568 48.5276C527.986 48.6792 528.315 49.0083 528.467 49.4263L529.59 52.5183L529.59 52.5183L529.591 52.5215C529.698 52.8087 529.89 53.0564 530.141 53.2313C530.393 53.4062 530.692 53.5 530.998 53.5C531.304 53.5 531.603 53.4062 531.855 53.2313C532.106 53.0564 532.298 52.8087 532.404 52.5215Z" fill="white" fill-opacity="0.9" stroke="#3D4B41"/><g opacity="0.94"><g clip-path="url(#clip9_6325_47787)"><rect x="99" y="144" width="17" height="17" rx="8.5" fill="white" fill-opacity="0.9"/></g><rect x="98.5" y="143.5" width="18" height="18" rx="9" stroke="#3D4B41"/></g><defs><clipPath id="clip0_6325_47787"><rect x="102" y="36" width="58" height="58" rx="29" fill="white"/></clipPath><clipPath id="clip1_6325_47787"><rect x="499" y="160" width="35" height="35" rx="17.5" fill="white"/></clipPath><clipPath id="clip2_6325_47787"><rect x="52" y="250" width="21" height="21" rx="10.5" fill="white"/></clipPath><clipPath id="clip3_6325_47787"><rect x="601" y="96" width="11" height="11" rx="5.5" fill="white"/></clipPath><clipPath id="clip4_6325_47787"><rect x="212" y="38" width="11" height="11" rx="5.5" fill="white"/></clipPath><clipPath id="clip5_6325_47787"><rect x="695" y="245" width="11" height="11" rx="5.5" fill="white"/></clipPath><clipPath id="clip6_6325_47787"><rect x="560" y="53" width="23" height="23" rx="11.5" fill="white"/></clipPath><clipPath id="clip7_6325_47787"><rect x="149" y="200" width="35" height="35" rx="17.5" fill="white"/></clipPath><clipPath id="clip8_6325_47787"><rect x="129" y="261" width="11" height="11" rx="5.5" fill="white"/></clipPath><clipPath id="clip9_6325_47787"><rect x="99" y="144" width="17" height="17" rx="8.5" fill="white"/></clipPath></defs></svg>