<svg width="735" height="358" viewBox="0 0 735 358" fill="none" xmlns="http://www.w3.org/2000/svg"><path d="M269.135 1L269.135 358" stroke="white" stroke-opacity="0.08" stroke-dasharray="7 4"/><path d="M465.865 1L465.865 358" stroke="white" stroke-opacity="0.08" stroke-dasharray="7 4"/><path d="M0 66.5H735" stroke="white" stroke-opacity="0.08" stroke-dasharray="7 4"/><path d="M0 179.5H735" stroke="white" stroke-opacity="0.08" stroke-dasharray="7 4"/><path d="M0 293.5H735" stroke="white" stroke-opacity="0.08" stroke-dasharray="7 4"/><g clip-path="url(#clip0_6325_48003)"><rect x="41" y="17" width="253" height="121.666" rx="22.5663" fill="white" fill-opacity="0.9"/><g clip-path="url(#clip1_6325_48003)"><rect x="55.5029" y="29.8917" width="33.8495" height="33.8495" fill="#3D4B41"/><path fill-rule="evenodd" clip-rule="evenodd" d="M76.9978 43.9679C77.955 43.1637 79.0231 42.8577 80.0474 42.935C81.1401 43.0176 82.1513 43.5332 82.9064 44.2823C83.6616 45.0314 84.1804 46.0333 84.2634 47.1147C84.3472 48.2059 83.9844 49.3488 83.0277 50.3518C82.9402 50.4441 82.8507 50.5353 82.7594 50.6253C78.4202 54.9292 72.656 54.9405 72.5971 54.9405C72.5676 54.9405 66.7849 54.9403 62.4344 50.6247L62.4334 50.6238C62.3436 50.5342 62.2552 50.444 62.1681 50.3532L62.1674 50.3524C61.2102 49.3503 60.847 48.2077 60.9305 47.1165C61.0133 46.0353 61.5318 45.0333 62.2867 44.2839C63.0416 43.5346 64.0526 43.0185 65.1455 42.9356C66.1698 42.858 67.2381 43.1636 68.1959 43.9674C68.2989 42.7276 68.8355 41.7627 69.6144 41.0993C70.4452 40.3918 71.5278 40.0468 72.5968 40.0468C73.6659 40.0468 74.7485 40.3918 75.5792 41.0993C76.3582 41.7628 76.8949 42.7279 76.9978 43.9679Z" fill="white" fill-opacity="0.9"/></g><rect x="54.9919" y="29.3807" width="34.8716" height="34.8716" rx="17.4358" stroke="#3D4B41" stroke-width="1.02212"/><path d="M107.647 59.8206V59.0281C107.501 59.3305 107.283 59.5674 106.991 59.7386C106.703 59.9062 106.352 59.99 105.936 59.99C105.543 59.99 105.195 59.9081 104.892 59.7441C104.59 59.5801 104.355 59.3542 104.187 59.0664C104.023 58.7785 103.941 58.4524 103.941 58.088C103.941 57.7273 104.025 57.4012 104.193 57.1097C104.36 56.8182 104.601 56.5904 104.914 56.4265C105.227 56.2589 105.594 56.1751 106.013 56.1751C106.417 56.1751 106.76 56.2534 107.04 56.4101C107.321 56.5631 107.523 56.7745 107.647 57.0441V57.0332C107.647 56.3372 107.45 55.8107 107.057 55.4536C106.667 55.0965 106.124 54.918 105.428 54.918C104.823 54.918 104.291 55.0583 103.832 55.3388C103.376 55.6194 103.025 56.0038 102.777 56.4921C102.533 56.9803 102.411 57.5287 102.411 58.1372C102.411 58.7821 102.557 59.3579 102.848 59.8643C103.143 60.3708 103.559 60.7662 104.094 61.0504C104.63 61.3346 105.246 61.4767 105.942 61.4767C106.503 61.4767 107.042 61.3856 107.559 61.2034C108.081 61.0212 108.543 60.7771 108.948 60.471V61.75C108.485 62.0779 107.997 62.3184 107.483 62.4714C106.973 62.6245 106.421 62.701 105.827 62.701C104.858 62.701 104.014 62.5042 103.296 62.1107C102.578 61.7172 102.028 61.1779 101.646 60.4929C101.263 59.8042 101.072 59.0281 101.072 58.1645C101.072 57.29 101.261 56.5176 101.64 55.8471C102.019 55.173 102.54 54.652 103.203 54.284C103.87 53.9123 104.621 53.7265 105.455 53.7265C106.206 53.7265 106.843 53.8631 107.368 54.1364C107.897 54.406 108.296 54.7886 108.565 55.2842C108.835 55.7761 108.97 56.3518 108.97 57.0113V59.8206H107.647ZM106.373 59.0062C106.618 59.0062 106.836 58.9643 107.029 58.8805C107.226 58.7931 107.377 58.6747 107.483 58.5253C107.592 58.3759 107.647 58.2083 107.647 58.0224C107.647 57.8439 107.592 57.6836 107.483 57.5415C107.377 57.3957 107.23 57.2828 107.04 57.2026C106.851 57.1188 106.636 57.0769 106.395 57.0769C106.042 57.0769 105.769 57.1662 105.575 57.3447C105.382 57.5196 105.286 57.751 105.286 58.0388C105.286 58.3303 105.381 58.5653 105.57 58.7439C105.759 58.9188 106.027 59.0062 106.373 59.0062ZM115.575 53.2947V61.3564H114.203V60.3016C114.043 60.6623 113.802 60.9575 113.481 61.187C113.161 61.4129 112.767 61.5259 112.301 61.5259C111.809 61.5259 111.375 61.4002 111 61.1488C110.625 60.8937 110.335 60.5421 110.131 60.0939C109.931 59.6457 109.83 59.1374 109.83 58.569C109.83 58.0042 109.94 57.4941 110.158 57.0386C110.377 56.5795 110.683 56.2188 111.077 55.9564C111.47 55.6941 111.918 55.5629 112.421 55.5629C113.223 55.5629 113.811 55.9182 114.186 56.6287V53.2947H115.575ZM112.705 60.318C113.008 60.318 113.272 60.2415 113.498 60.0884C113.727 59.9354 113.904 59.7241 114.028 59.4544C114.152 59.1811 114.214 58.8714 114.214 58.5253C114.214 58.1828 114.154 57.8785 114.033 57.6125C113.913 57.3465 113.742 57.1388 113.52 56.9894C113.297 56.84 113.037 56.7653 112.738 56.7653C112.439 56.7653 112.177 56.84 111.951 56.9894C111.729 57.1388 111.556 57.3502 111.432 57.6234C111.312 57.8931 111.251 58.2083 111.251 58.569C111.251 58.9224 111.312 59.2321 111.432 59.4981C111.552 59.7605 111.721 59.9627 111.94 60.1048C112.159 60.2469 112.414 60.318 112.705 60.318ZM117.687 54.8742C117.534 54.8742 117.394 54.8396 117.266 54.7704C117.139 54.7012 117.039 54.6064 116.966 54.4862C116.893 54.3623 116.856 54.2257 116.856 54.0763C116.856 53.854 116.935 53.67 117.091 53.5242C117.252 53.3749 117.45 53.3002 117.687 53.3002C117.928 53.3002 118.124 53.373 118.277 53.5188C118.43 53.6645 118.507 53.8504 118.507 54.0763C118.507 54.3058 118.429 54.4971 118.272 54.6502C118.119 54.7996 117.924 54.8742 117.687 54.8742ZM116.993 55.7323H118.381V61.3564H116.993V55.7323ZM125.123 55.7323V60.7334C125.123 61.3528 124.996 61.883 124.74 62.3239C124.485 62.7647 124.126 63.0981 123.664 63.3241C123.201 63.5536 122.664 63.6684 122.051 63.6684C121.206 63.6684 120.528 63.4625 120.018 63.0508V61.7882C120.266 62.0251 120.556 62.2054 120.887 62.3293C121.222 62.4532 121.583 62.5152 121.969 62.5152C122.567 62.5152 123.011 62.3475 123.303 62.0123C123.594 61.6771 123.74 61.218 123.74 60.635V60.0119C123.365 60.788 122.751 61.1761 121.898 61.1761C121.406 61.1761 120.976 61.0595 120.608 60.8263C120.24 60.5931 119.956 60.2688 119.756 59.8534C119.559 59.4344 119.461 58.957 119.461 58.4214C119.461 57.8821 119.566 57.3957 119.778 56.9621C119.993 56.5249 120.293 56.1823 120.68 55.9346C121.069 55.6868 121.518 55.5629 122.024 55.5629C122.447 55.5629 122.798 55.6558 123.079 55.8417C123.363 56.0275 123.585 56.3117 123.746 56.6943V55.7323H125.123ZM122.286 60.0283C122.578 60.0283 122.833 59.9591 123.052 59.8206C123.274 59.6822 123.445 59.4872 123.565 59.2358C123.686 58.9844 123.746 58.6947 123.746 58.3668C123.746 58.0425 123.686 57.7564 123.565 57.5087C123.445 57.2609 123.276 57.0696 123.057 56.9348C122.842 56.8 122.596 56.7326 122.319 56.7326C122.031 56.7326 121.778 56.8036 121.559 56.9457C121.344 57.0878 121.177 57.2864 121.057 57.5415C120.94 57.7965 120.882 58.0917 120.882 58.4269C120.882 58.7475 120.938 59.0299 121.051 59.2741C121.164 59.5145 121.326 59.7004 121.538 59.8315C121.749 59.9627 121.999 60.0283 122.286 60.0283ZM127.225 54.8742C127.071 54.8742 126.931 54.8396 126.804 54.7704C126.676 54.7012 126.576 54.6064 126.503 54.4862C126.43 54.3623 126.394 54.2257 126.394 54.0763C126.394 53.854 126.472 53.67 126.629 53.5242C126.789 53.3749 126.988 53.3002 127.225 53.3002C127.465 53.3002 127.662 53.373 127.815 53.5188C127.968 53.6645 128.044 53.8504 128.044 54.0763C128.044 54.3058 127.966 54.4971 127.809 54.6502C127.656 54.7996 127.461 54.8742 127.225 54.8742ZM126.53 55.7323H127.919V61.3564H126.53V55.7323ZM132.928 56.8747H131.452V61.3564H130.064V56.8747H128.73V55.7323H130.064V54.2785L131.452 53.9178V55.7323H132.928V56.8747ZM135.603 55.5629C136.135 55.5629 136.592 55.6631 136.975 55.8635C137.358 56.0603 137.649 56.3445 137.85 56.7162C138.05 57.0878 138.15 57.5287 138.15 58.0388V61.3564H136.784V60.6514C136.634 60.9283 136.423 61.1433 136.15 61.2963C135.88 61.4494 135.565 61.5259 135.204 61.5259C134.84 61.5259 134.51 61.4475 134.215 61.2909C133.923 61.1305 133.696 60.9119 133.532 60.635C133.368 60.3544 133.286 60.0411 133.286 59.6949C133.286 59.3342 133.371 59.0172 133.543 58.7439C133.714 58.4706 133.953 58.2593 134.259 58.1099C134.568 57.9568 134.922 57.8803 135.319 57.8803C135.651 57.8803 135.94 57.9386 136.188 58.0552C136.439 58.1718 136.638 58.3285 136.784 58.5253V58.1809C136.784 57.7218 136.654 57.3684 136.396 57.1206C136.141 56.8692 135.787 56.7435 135.335 56.7435C134.997 56.7435 134.678 56.8054 134.379 56.9293C134.084 57.0532 133.821 57.2263 133.592 57.4485V56.1915C133.865 55.9983 134.169 55.8453 134.505 55.7323C134.843 55.6194 135.21 55.5629 135.603 55.5629ZM135.702 60.5421C135.92 60.5421 136.111 60.502 136.275 60.4218C136.443 60.3417 136.572 60.2305 136.664 60.0884C136.755 59.9463 136.8 59.7878 136.8 59.6129C136.8 59.4453 136.755 59.2941 136.664 59.1593C136.576 59.0245 136.45 58.9206 136.286 58.8477C136.122 58.7712 135.931 58.733 135.713 58.733C135.374 58.733 135.108 58.8149 134.915 58.9789C134.721 59.1392 134.625 59.356 134.625 59.6293C134.625 59.9099 134.72 60.1322 134.909 60.2961C135.099 60.4601 135.363 60.5421 135.702 60.5421ZM139.492 53.2947H140.88V61.3564H139.492V53.2947ZM144.288 55.5629C144.82 55.5629 145.277 55.6631 145.66 55.8635C146.042 56.0603 146.334 56.3445 146.534 56.7162C146.735 57.0878 146.835 57.5287 146.835 58.0388V61.3564H145.469V60.6514C145.319 60.9283 145.108 61.1433 144.835 61.2963C144.565 61.4494 144.25 61.5259 143.889 61.5259C143.525 61.5259 143.195 61.4475 142.9 61.2909C142.608 61.1305 142.38 60.9119 142.216 60.635C142.053 60.3544 141.971 60.0411 141.971 59.6949C141.971 59.3342 142.056 59.0172 142.227 58.7439C142.399 58.4706 142.637 58.2593 142.943 58.1099C143.253 57.9568 143.607 57.8803 144.004 57.8803C144.335 57.8803 144.625 57.9386 144.873 58.0552C145.124 58.1718 145.323 58.3285 145.469 58.5253V58.1809C145.469 57.7218 145.339 57.3684 145.08 57.1206C144.825 56.8692 144.472 56.7435 144.02 56.7435C143.681 56.7435 143.362 56.8054 143.064 56.9293C142.769 57.0532 142.506 57.2263 142.277 57.4485V56.1915C142.55 55.9983 142.854 55.8453 143.189 55.7323C143.528 55.6194 143.894 55.5629 144.288 55.5629ZM144.386 60.5421C144.605 60.5421 144.796 60.502 144.96 60.4218C145.128 60.3417 145.257 60.2305 145.348 60.0884C145.439 59.9463 145.485 59.7878 145.485 59.6129C145.485 59.4453 145.439 59.2941 145.348 59.1593C145.261 59.0245 145.135 58.9206 144.971 58.8477C144.807 58.7712 144.616 58.733 144.397 58.733C144.058 58.733 143.792 58.8149 143.599 58.9789C143.406 59.1392 143.31 59.356 143.31 59.6293C143.31 59.9099 143.404 60.1322 143.594 60.2961C143.783 60.4601 144.047 60.5421 144.386 60.5421ZM151.576 61.3564L150.308 59.3068L149.057 61.3564H147.483L149.439 58.4324L147.575 55.7323H149.166L150.314 57.6234L151.516 55.7323H153.063L151.21 58.3996L153.172 61.3564H151.576Z" fill="#353535" fill-opacity="0.5"/><path d="M105.583 44.9539C104.771 44.9539 104.002 44.8485 103.275 44.6377C102.549 44.4225 101.912 44.1287 101.365 43.7565V41.7922C101.957 42.2003 102.589 42.5187 103.262 42.7475C103.939 42.9717 104.645 43.0838 105.381 43.0838C106.04 43.0838 106.538 42.9919 106.874 42.808C107.215 42.6241 107.385 42.3483 107.385 41.9806C107.385 41.7967 107.341 41.6398 107.251 41.5097C107.161 41.3752 107.009 41.2563 106.793 41.1532C106.583 41.0456 106.289 40.9469 105.912 40.8572L104.163 40.467C103.186 40.2563 102.468 39.9222 102.011 39.4647C101.558 39.0028 101.331 38.4243 101.331 37.7292C101.331 37.1507 101.497 36.6394 101.829 36.1955C102.165 35.7515 102.661 35.4062 103.316 35.1595C103.97 34.9084 104.762 34.7828 105.69 34.7828C106.511 34.7828 107.231 34.8792 107.85 35.0721C108.468 35.2604 108.989 35.4981 109.41 35.7851V37.6956C108.984 37.3951 108.468 37.1529 107.863 36.9691C107.262 36.7807 106.607 36.6865 105.899 36.6865C105.217 36.6865 104.701 36.774 104.352 36.9489C104.002 37.1193 103.827 37.3637 103.827 37.6821C103.827 37.9153 103.926 38.1037 104.123 38.2472C104.32 38.3907 104.661 38.5162 105.145 38.6239L106.989 39.0208C108.002 39.2405 108.74 39.5769 109.202 40.0298C109.668 40.4783 109.901 41.0769 109.901 41.8259C109.901 42.4492 109.724 42.9986 109.37 43.474C109.016 43.9448 108.511 44.3103 107.856 44.5704C107.206 44.8261 106.448 44.9539 105.583 44.9539ZM117.092 38.4826H114.704V44.6915H112.35V38.4826H110.13V36.7336H112.35V35.2537L114.704 34.7828V36.7336H117.092V38.4826ZM125.743 41.0792H119.393C119.523 41.7025 119.855 42.1869 120.388 42.5322C120.922 42.873 121.624 43.0434 122.494 43.0434C123.068 43.0434 123.604 42.9582 124.102 42.7878C124.604 42.6174 125.061 42.3842 125.474 42.0882V43.9045C125.048 44.2184 124.523 44.4695 123.9 44.6579C123.281 44.8418 122.635 44.9337 121.963 44.9337C120.98 44.9337 120.119 44.7521 119.379 44.3888C118.639 44.0256 118.068 43.5166 117.664 42.8618C117.265 42.2071 117.065 41.4559 117.065 40.6083C117.065 39.819 117.247 39.106 117.61 38.4692C117.978 37.8323 118.505 37.3301 119.191 36.9623C119.882 36.5901 120.691 36.404 121.62 36.404C122.503 36.404 123.252 36.5587 123.866 36.8682C124.485 37.1731 124.952 37.6126 125.265 38.1866C125.584 38.7562 125.743 39.4378 125.743 40.2316V41.0792ZM121.673 38.2203C121.059 38.2203 120.559 38.3683 120.173 38.6642C119.788 38.9557 119.541 39.3481 119.433 39.8414H123.765C123.716 39.3212 123.51 38.9221 123.147 38.6441C122.788 38.3615 122.297 38.2203 121.673 38.2203ZM132.584 36.404C133.32 36.404 133.97 36.5879 134.535 36.9556C135.1 37.3233 135.535 37.8301 135.84 38.4759C136.15 39.1172 136.304 39.8347 136.304 40.6285C136.304 41.4671 136.134 42.2138 135.793 42.8685C135.457 43.5233 134.997 44.0323 134.414 44.3955C133.831 44.7543 133.183 44.9337 132.47 44.9337C131.708 44.9337 131.048 44.7723 130.492 44.4494C129.936 44.1265 129.506 43.6601 129.201 43.0502V47.3083H126.866V36.7336H129.201V38.6171C129.456 37.922 129.871 37.3794 130.445 36.9892C131.024 36.5991 131.737 36.404 132.584 36.404ZM131.501 43.0367C131.977 43.0367 132.394 42.9358 132.753 42.734C133.111 42.5277 133.387 42.2452 133.58 41.8864C133.773 41.5232 133.869 41.1151 133.869 40.6621C133.869 40.2137 133.775 39.81 133.587 39.4513C133.398 39.0925 133.127 38.8122 132.773 38.6104C132.423 38.4041 132.013 38.301 131.542 38.301C131.071 38.301 130.656 38.4064 130.297 38.6171C129.938 38.8234 129.663 39.1082 129.47 39.4715C129.277 39.8347 129.181 40.2451 129.181 40.7025C129.181 41.1509 129.275 41.5523 129.463 41.9066C129.651 42.2564 129.92 42.5322 130.27 42.734C130.62 42.9358 131.03 43.0367 131.501 43.0367ZM142.823 36.404C143.518 36.404 144.107 36.552 144.592 36.848C145.076 37.1395 145.444 37.57 145.695 38.1395C145.951 38.7046 146.078 39.393 146.078 40.2047V44.6915H143.738V40.7227C143.738 39.9379 143.581 39.3526 143.267 38.9669C142.953 38.5768 142.477 38.3817 141.841 38.3817C141.388 38.3817 141.002 38.4759 140.684 38.6642C140.37 38.8526 140.132 39.1194 139.97 39.4647C139.814 39.81 139.735 40.2114 139.735 40.6688V44.6915H137.401V34.7694H139.735V38.5095C140.018 37.801 140.412 37.274 140.919 36.9287C141.43 36.5789 142.065 36.404 142.823 36.404ZM150.794 36.404C151.677 36.404 152.435 36.5565 153.068 36.8614C153.7 37.1664 154.182 37.6148 154.514 38.2068C154.85 38.7988 155.019 39.5186 155.019 40.3661V44.6915H152.731V43.6152C152.458 44.0592 152.086 44.3955 151.615 44.6243C151.148 44.8485 150.603 44.9606 149.98 44.9606C149.397 44.9606 148.886 44.8462 148.446 44.6175C148.007 44.3888 147.666 44.0771 147.424 43.6825C147.186 43.2834 147.067 42.8371 147.067 42.3438C147.067 41.8461 147.191 41.4021 147.437 41.0119C147.688 40.6173 148.043 40.3101 148.5 40.0903C148.962 39.8661 149.496 39.754 150.101 39.754C151.272 39.754 152.146 40.1352 152.725 40.8976V40.5747C152.716 40.0814 152.599 39.6665 152.375 39.3302C152.151 38.9939 151.843 38.7427 151.453 38.5768C151.068 38.4064 150.621 38.3212 150.115 38.3212C149.088 38.3212 148.209 38.6732 147.478 39.3773V37.4399C148.419 36.7493 149.525 36.404 150.794 36.404ZM150.908 43.4672C151.258 43.4672 151.57 43.4134 151.843 43.3058C152.121 43.1982 152.339 43.0479 152.496 42.8551C152.653 42.6623 152.731 42.447 152.731 42.2093C152.731 41.9806 152.657 41.7765 152.509 41.5972C152.361 41.4133 152.151 41.2698 151.877 41.1666C151.608 41.0635 151.296 41.0119 150.942 41.0119C150.597 41.0119 150.298 41.0635 150.047 41.1666C149.796 41.2698 149.603 41.4133 149.469 41.5972C149.339 41.781 149.274 41.9918 149.274 42.2295C149.274 42.4717 149.339 42.6869 149.469 42.8753C149.599 43.0636 149.787 43.2094 150.034 43.3125C150.281 43.4157 150.572 43.4672 150.908 43.4672ZM161.873 36.404C162.568 36.404 163.158 36.552 163.642 36.848C164.127 37.1395 164.494 37.57 164.746 38.1395C165.001 38.7046 165.129 39.393 165.129 40.2047V44.6915H162.788V40.7227C162.788 39.9379 162.631 39.3526 162.317 38.9669C162.003 38.5768 161.528 38.3817 160.891 38.3817C160.438 38.3817 160.052 38.4759 159.734 38.6642C159.42 38.8526 159.182 39.1194 159.021 39.4647C158.864 39.81 158.786 40.2114 158.786 40.6688V44.6915H156.451V36.7336H158.772V38.5432C159.055 37.8211 159.452 37.2852 159.963 36.9354C160.474 36.5811 161.111 36.404 161.873 36.404ZM167.793 36.3838C167.533 36.3838 167.3 36.3367 167.093 36.2426C166.887 36.1439 166.726 36.0094 166.609 35.8389C166.492 35.6685 166.434 35.4779 166.434 35.2672C166.434 35.0609 166.492 34.8748 166.609 34.7088C166.73 34.5429 166.894 34.4128 167.1 34.3187C167.306 34.2245 167.537 34.1774 167.793 34.1774C168.044 34.1774 168.27 34.2245 168.472 34.3187C168.674 34.4128 168.831 34.5429 168.943 34.7088C169.06 34.8748 169.118 35.0609 169.118 35.2672C169.118 35.4779 169.06 35.6685 168.943 35.8389C168.831 36.0094 168.674 36.1439 168.472 36.2426C168.27 36.3367 168.044 36.3838 167.793 36.3838ZM166.609 37.0094H168.95V44.6915H166.609V37.0094ZM178.724 41.0792H172.374C172.504 41.7025 172.836 42.1869 173.369 42.5322C173.903 42.873 174.605 43.0434 175.475 43.0434C176.049 43.0434 176.585 42.9582 177.083 42.7878C177.585 42.6174 178.042 42.3842 178.455 42.0882V43.9045C178.029 44.2184 177.504 44.4695 176.881 44.6579C176.262 44.8418 175.616 44.9337 174.944 44.9337C173.961 44.9337 173.1 44.7521 172.36 44.3888C171.62 44.0256 171.049 43.5166 170.645 42.8618C170.246 42.2071 170.046 41.4559 170.046 40.6083C170.046 39.819 170.228 39.106 170.591 38.4692C170.959 37.8323 171.486 37.3301 172.172 36.9623C172.863 36.5901 173.672 36.404 174.6 36.404C175.484 36.404 176.233 36.5587 176.847 36.8682C177.466 37.1731 177.933 37.6126 178.246 38.1866C178.565 38.7562 178.724 39.4378 178.724 40.2316V41.0792ZM174.654 38.2203C174.04 38.2203 173.54 38.3683 173.154 38.6642C172.769 38.9557 172.522 39.3481 172.414 39.8414H176.746C176.697 39.3212 176.491 38.9221 176.127 38.6441C175.769 38.3615 175.278 38.2203 174.654 38.2203Z" fill="#3D4B41"/><path d="M195.62 34.1356C195.319 34.1354 195.02 34.1946 194.741 34.3099C194.463 34.4252 194.209 34.5943 193.996 34.8076C193.783 35.0208 193.614 35.2741 193.498 35.5527C193.383 35.8314 193.324 36.1301 193.324 36.4317C193.324 35.8228 193.082 35.2387 192.652 34.8081C192.221 34.3775 191.637 34.1356 191.028 34.1356C190.419 34.1356 189.835 34.3775 189.404 34.8081C188.974 35.2387 188.732 35.8228 188.732 36.4317C188.732 35.8228 188.49 35.2387 188.059 34.8081C187.629 34.3775 187.045 34.1356 186.436 34.1356C185.827 34.1356 185.243 34.3775 184.812 34.8081C184.382 35.2387 184.14 35.8228 184.14 36.4317V39.7332C184.14 41.5601 184.865 43.3122 186.157 44.604C187.449 45.8958 189.201 46.6215 191.028 46.6215C192.855 46.621 194.606 45.8951 195.898 44.6034C197.19 43.3117 197.916 41.5599 197.916 39.7332V36.4317C197.916 35.8228 197.674 35.2387 197.244 34.8081C196.813 34.3775 196.229 34.1356 195.62 34.1356V34.1356Z" fill="#3D4B41"/><path d="M188.806 40.7525L190.505 42.3865L193.776 38.4734" stroke="white" stroke-opacity="0.9" stroke-width="2.11557" stroke-linecap="round" stroke-linejoin="round"/><g opacity="0.5" filter="url(#filter0_d_6325_48003)"><rect x="100.624" y="75.8185" width="176.455" height="10.4745" rx="5.23726" fill="black" fill-opacity="0.3" shape-rendering="crispEdges"/></g><g opacity="0.5" filter="url(#filter1_d_6325_48003)"><rect x="100.636" y="97.8003" width="151.818" height="9.78634" rx="4.89317" fill="black" fill-opacity="0.3"/><rect x="100.636" y="110.849" width="109.971" height="9.78634" rx="4.89317" fill="black" fill-opacity="0.3"/></g><circle cx="258.951" cy="35.9347" r="1.2086" fill="#3D4B41"/><circle cx="258.951" cy="40.2856" r="1.2086" fill="#3D4B41"/><circle cx="258.951" cy="44.6367" r="1.2086" fill="#3D4B41"/></g><rect x="40.6474" y="16.6474" width="253.705" height="122.371" rx="22.9189" stroke="#3D4B41" stroke-width="0.705198"/><rect x="547.5" y="28.5" width="167" height="89" rx="7.5" fill="#3D4B41"/><rect width="168" height="48" transform="translate(547 28)" fill="white" fill-opacity="0.9"/><rect x="644.548" y="42.8123" width="59.9995" height="59.9995" rx="29.9998" fill="white" fill-opacity="0.9"/><path fill-rule="evenodd" clip-rule="evenodd" d="M682.411 67.9106C684.058 66.5269 685.896 66.0004 687.658 66.1335C689.538 66.2755 691.278 67.1627 692.577 68.4515C693.877 69.7404 694.769 71.4644 694.912 73.3249C695.056 75.2024 694.432 77.1688 692.786 78.8946C692.635 79.0535 692.482 79.2104 692.324 79.3653C684.858 86.7704 674.941 86.7899 674.839 86.7899C674.789 86.7899 664.839 86.7895 657.354 79.3643L657.352 79.3626C657.197 79.2084 657.045 79.0532 656.895 78.897L656.894 78.8957C655.247 77.1714 654.622 75.2055 654.766 73.328C654.908 71.4678 655.8 69.7436 657.099 68.4543C658.398 67.165 660.138 66.2771 662.018 66.1345C663.781 66.0009 665.619 66.5267 667.267 67.9097C667.444 65.7765 668.367 64.1163 669.707 62.9749C671.137 61.7576 672.999 61.1639 674.839 61.1639C676.678 61.1639 678.541 61.7576 679.97 62.9749C681.311 64.1165 682.234 65.777 682.411 67.9106Z" fill="#3D4B41"/><rect x="644.548" y="42.8123" width="59.9995" height="59.9995" rx="29.9998" stroke="#3D4B41" stroke-width="1.75865"/><path d="M560.754 89.9612V89.4251C560.656 89.6297 560.508 89.7899 560.311 89.9057C560.116 90.0191 559.878 90.0758 559.597 90.0758C559.331 90.0758 559.096 90.0203 558.891 89.9094C558.686 89.7985 558.527 89.6457 558.414 89.451C558.303 89.2563 558.248 89.0357 558.248 88.7892C558.248 88.5452 558.304 88.3247 558.418 88.1275C558.531 87.9303 558.694 87.7763 558.906 87.6654C559.118 87.552 559.365 87.4953 559.649 87.4953C559.922 87.4953 560.154 87.5483 560.344 87.6543C560.534 87.7578 560.67 87.9007 560.754 88.0831V88.0757C560.754 87.605 560.621 87.2488 560.355 87.0073C560.091 86.7658 559.724 86.645 559.253 86.645C558.844 86.645 558.484 86.7399 558.174 86.9297C557.866 87.1195 557.628 87.3795 557.46 87.7097C557.295 88.04 557.213 88.4109 557.213 88.8225C557.213 89.2587 557.311 89.6482 557.508 89.9907C557.708 90.3333 557.989 90.6007 558.351 90.793C558.714 90.9852 559.13 91.0813 559.601 91.0813C559.98 91.0813 560.345 91.0197 560.695 90.8965C561.048 90.7733 561.361 90.6081 561.634 90.4011V91.2662C561.321 91.488 560.991 91.6507 560.643 91.7542C560.298 91.8577 559.925 91.9094 559.523 91.9094C558.868 91.9094 558.297 91.7764 557.811 91.5102C557.326 91.244 556.954 90.8792 556.695 90.4159C556.436 89.9501 556.307 89.4251 556.307 88.841C556.307 88.2495 556.435 87.727 556.691 87.2735C556.948 86.8175 557.3 86.4651 557.749 86.2162C558.2 85.9648 558.707 85.8391 559.272 85.8391C559.779 85.8391 560.211 85.9315 560.566 86.1164C560.923 86.2987 561.193 86.5575 561.375 86.8927C561.558 87.2254 561.649 87.6148 561.649 88.0609V89.9612H560.754ZM559.893 89.4103C560.058 89.4103 560.206 89.382 560.337 89.3253C560.47 89.2661 560.572 89.186 560.643 89.085C560.717 88.9839 560.754 88.8706 560.754 88.7449C560.754 88.6241 560.717 88.5157 560.643 88.4195C560.572 88.321 560.472 88.2446 560.344 88.1903C560.216 88.1336 560.07 88.1053 559.908 88.1053C559.669 88.1053 559.484 88.1657 559.353 88.2865C559.222 88.4048 559.157 88.5613 559.157 88.756C559.157 88.9531 559.221 89.1121 559.349 89.2329C559.478 89.3512 559.659 89.4103 559.893 89.4103ZM565.928 90.0906V91H562.608V85.6986H563.584V90.0906H565.928ZM569.819 89.2994H567.131C567.176 89.6297 567.313 89.8835 567.542 90.061C567.771 90.2384 568.082 90.3272 568.473 90.3272C568.693 90.3272 568.908 90.2939 569.12 90.2273C569.335 90.1583 569.518 90.0647 569.671 89.9464V90.7153C569.518 90.8336 569.32 90.9298 569.076 91.0037C568.834 91.0776 568.573 91.1146 568.292 91.1146C567.866 91.1146 567.492 91.032 567.172 90.8669C566.854 90.6993 566.608 90.4615 566.433 90.1534C566.258 89.8453 566.17 89.4855 566.17 89.0739C566.17 88.687 566.247 88.3431 566.399 88.0425C566.555 87.7393 566.778 87.5039 567.069 87.3363C567.362 87.1663 567.708 87.0813 568.107 87.0813C568.46 87.0813 568.764 87.149 569.021 87.2846C569.277 87.4177 569.474 87.6136 569.612 87.8724C569.75 88.1287 569.819 88.4393 569.819 88.804V89.2994ZM568.107 87.8428C567.834 87.8428 567.616 87.9205 567.453 88.0757C567.293 88.2285 567.193 88.4393 567.154 88.7079H568.972C568.968 88.4319 568.887 88.2187 568.732 88.0683C568.579 87.918 568.371 87.8428 568.107 87.8428ZM572.704 87.0813C572.976 87.0813 573.211 87.1416 573.411 87.2624C573.61 87.3832 573.763 87.5594 573.869 87.7911C573.977 88.0203 574.032 88.2951 574.032 88.6155V91H573.093V88.8225C573.093 88.4996 573.034 88.263 572.915 88.1127C572.799 87.9599 572.611 87.8835 572.35 87.8835C572.074 87.8835 571.859 87.9784 571.706 88.1682C571.554 88.3579 571.477 88.6204 571.477 88.9556V91H570.538V87.1959H571.466V87.8132C571.574 87.5816 571.733 87.4017 571.943 87.2735C572.152 87.1453 572.406 87.0813 572.704 87.0813ZM576.193 91.1146C575.65 91.1146 575.167 90.963 574.743 90.6599V89.854C574.938 90.0117 575.155 90.1362 575.394 90.2273C575.636 90.3185 575.868 90.3641 576.093 90.3641C576.3 90.3641 576.461 90.3247 576.577 90.2458C576.695 90.167 576.754 90.0524 576.754 89.902C576.754 89.7985 576.721 89.711 576.655 89.6395C576.588 89.5656 576.477 89.5052 576.322 89.4584L575.69 89.2772C575.061 89.0973 574.747 88.7461 574.747 88.2236C574.747 87.9969 574.807 87.7972 574.928 87.6247C575.049 87.4522 575.221 87.3191 575.446 87.2254C575.67 87.1293 575.934 87.0813 576.237 87.0813C576.708 87.0813 577.133 87.202 577.512 87.4436V88.231C577.342 88.1004 577.151 88.0006 576.939 87.9315C576.727 87.8625 576.514 87.828 576.3 87.828C576.098 87.828 575.945 87.8601 575.841 87.9242C575.74 87.9858 575.69 88.0757 575.69 88.194C575.69 88.3937 575.829 88.5292 576.107 88.6007L576.725 88.7634C577.383 88.926 577.712 89.2945 577.712 89.8687C577.712 90.1152 577.648 90.3333 577.52 90.5231C577.394 90.7104 577.217 90.8558 576.987 90.9593C576.758 91.0628 576.493 91.1146 576.193 91.1146ZM580.52 91.1516C580.101 91.1516 579.729 91.0641 579.403 90.8891C579.08 90.7141 578.828 90.4652 578.645 90.1423C578.465 89.8194 578.376 89.4424 578.376 89.0111V85.6986H579.352V88.9445C579.352 89.2131 579.4 89.4424 579.496 89.6321C579.594 89.8219 579.731 89.9649 579.906 90.061C580.084 90.1571 580.288 90.2052 580.52 90.2052C580.751 90.2052 580.956 90.1571 581.133 90.061C581.311 89.9649 581.449 89.8219 581.548 89.6321C581.646 89.4424 581.695 89.2131 581.695 88.9445V85.6986H582.671V89.0111C582.671 89.4424 582.58 89.8194 582.398 90.1423C582.215 90.4652 581.962 90.7141 581.636 90.8891C581.311 91.0641 580.939 91.1516 580.52 91.1516ZM584.854 91.1146C584.312 91.1146 583.829 90.963 583.405 90.6599V89.854C583.6 90.0117 583.817 90.1362 584.056 90.2273C584.297 90.3185 584.53 90.3641 584.755 90.3641C584.962 90.3641 585.123 90.3247 585.239 90.2458C585.357 90.167 585.416 90.0524 585.416 89.902C585.416 89.7985 585.383 89.711 585.316 89.6395C585.25 89.5656 585.139 89.5052 584.984 89.4584L584.352 89.2772C583.723 89.0973 583.409 88.7461 583.409 88.2236C583.409 87.9969 583.469 87.7972 583.59 87.6247C583.711 87.4522 583.883 87.3191 584.108 87.2254C584.332 87.1293 584.596 87.0813 584.899 87.0813C585.369 87.0813 585.795 87.202 586.174 87.4436V88.231C586.004 88.1004 585.813 88.0006 585.601 87.9315C585.389 87.8625 585.176 87.828 584.962 87.828C584.759 87.828 584.607 87.8601 584.503 87.9242C584.402 87.9858 584.352 88.0757 584.352 88.194C584.352 88.3937 584.491 88.5292 584.769 88.6007L585.387 88.7634C586.045 88.926 586.374 89.2945 586.374 89.8687C586.374 90.1152 586.31 90.3333 586.182 90.5231C586.056 90.7104 585.878 90.8558 585.649 90.9593C585.42 91.0628 585.155 91.1146 584.854 91.1146ZM590.457 89.2994H587.769C587.814 89.6297 587.951 89.8835 588.18 90.061C588.409 90.2384 588.719 90.3272 589.111 90.3272C589.331 90.3272 589.546 90.2939 589.758 90.2273C589.973 90.1583 590.156 90.0647 590.309 89.9464V90.7153C590.156 90.8336 589.958 90.9298 589.714 91.0037C589.472 91.0776 589.211 91.1146 588.93 91.1146C588.504 91.1146 588.13 91.032 587.81 90.8669C587.492 90.6993 587.246 90.4615 587.071 90.1534C586.896 89.8453 586.808 89.4855 586.808 89.0739C586.808 88.687 586.885 88.3431 587.037 88.0425C587.193 87.7393 587.416 87.5039 587.707 87.3363C588 87.1663 588.346 87.0813 588.745 87.0813C589.098 87.0813 589.402 87.149 589.659 87.2846C589.915 87.4177 590.112 87.6136 590.25 87.8724C590.388 88.1287 590.457 88.4393 590.457 88.804V89.2994ZM588.745 87.8428C588.472 87.8428 588.254 87.9205 588.091 88.0757C587.931 88.2285 587.831 88.4393 587.792 88.7079H589.61C589.606 88.4319 589.525 88.2187 589.37 88.0683C589.217 87.918 589.009 87.8428 588.745 87.8428ZM593.043 87.1256C593.233 87.1256 593.398 87.1823 593.538 87.2957V88.1718C593.378 88.0585 593.176 88.0018 592.932 88.0018C592.772 88.0018 592.63 88.0449 592.507 88.1312C592.386 88.215 592.291 88.3394 592.222 88.5046C592.153 88.6672 592.118 88.8632 592.115 89.0924V91H591.176V87.1959H592.115V87.9574C592.201 87.6839 592.325 87.4768 592.485 87.3363C592.645 87.1959 592.831 87.1256 593.043 87.1256Z" fill="#DCDCDC" fill-opacity="0.5"/><path d="M561.201 105.397C560.304 105.397 559.513 105.194 558.826 104.789C558.139 104.38 557.604 103.809 557.222 103.076C556.844 102.339 556.655 101.495 556.655 100.544C556.655 99.5884 556.844 98.7399 557.222 97.9982C557.604 97.252 558.139 96.6718 558.826 96.2578C559.517 95.8437 560.309 95.6367 561.201 95.6367C562.106 95.6367 562.902 95.846 563.59 96.2646C564.281 96.6787 564.816 97.2588 565.193 98.005C565.571 98.7467 565.76 99.5975 565.76 100.558C565.76 101.509 565.571 102.35 565.193 103.083C564.816 103.815 564.281 104.384 563.59 104.789C562.902 105.194 562.106 105.397 561.201 105.397ZM561.201 103.445C561.656 103.445 562.045 103.326 562.368 103.09C562.695 102.853 562.943 102.519 563.112 102.086C563.285 101.654 563.371 101.145 563.371 100.558C563.371 99.9661 563.285 99.4474 563.112 99.0015C562.943 98.551 562.695 98.2029 562.368 97.9572C562.045 97.707 561.656 97.5819 561.201 97.5819C560.755 97.5819 560.368 97.7047 560.04 97.9504C559.717 98.1961 559.469 98.5419 559.297 98.9878C559.124 99.4337 559.037 99.9524 559.037 100.544C559.037 101.135 559.124 101.65 559.297 102.086C559.469 102.519 559.717 102.853 560.04 103.09C560.368 103.326 560.755 103.445 561.201 103.445ZM572.717 105.165L570.724 102.298L568.738 105.165H566.028L569.031 100.913L566.199 97.0905H568.895L570.731 99.6976L572.601 97.0905H575.317L572.492 100.913L575.502 105.165H572.717ZM584.363 103.09V105.165H576.412V95.3774H578.862V103.09H584.363ZM593.422 101.499H586.979C587.111 102.132 587.448 102.623 587.989 102.974C588.531 103.319 589.243 103.492 590.126 103.492C590.708 103.492 591.252 103.406 591.757 103.233C592.266 103.06 592.73 102.824 593.149 102.523V104.366C592.717 104.685 592.184 104.939 591.552 105.13C590.924 105.317 590.269 105.41 589.586 105.41C588.59 105.41 587.716 105.226 586.966 104.857C586.215 104.489 585.635 103.972 585.225 103.308C584.82 102.644 584.618 101.882 584.618 101.022C584.618 100.221 584.802 99.4974 585.17 98.8513C585.544 98.2052 586.078 97.6956 586.774 97.3225C587.475 96.9448 588.296 96.756 589.238 96.756C590.135 96.756 590.894 96.913 591.518 97.227C592.146 97.5364 592.619 97.9823 592.937 98.5647C593.261 99.1425 593.422 99.8341 593.422 100.64V101.499ZM589.293 98.5988C588.67 98.5988 588.162 98.749 587.771 99.0493C587.38 99.345 587.129 99.7431 587.02 100.244H591.415C591.365 99.7158 591.156 99.3109 590.788 99.0288C590.424 98.7421 589.925 98.5988 589.293 98.5988ZM600.208 96.756C600.914 96.756 601.512 96.9062 602.003 97.2065C602.495 97.5022 602.868 97.939 603.123 98.5169C603.382 99.0902 603.512 99.7886 603.512 100.612V105.165H601.137V101.138C601.137 100.341 600.977 99.7477 600.659 99.3564C600.34 98.9605 599.858 98.7626 599.212 98.7626C598.752 98.7626 598.361 98.8582 598.038 99.0493C597.72 99.2404 597.478 99.5111 597.315 99.8614C597.155 100.212 597.076 100.619 597.076 101.083V105.165H594.707V97.0905H597.062V98.9264C597.349 98.1938 597.751 97.6501 598.27 97.2952C598.789 96.9357 599.435 96.756 600.208 96.756ZM608.653 105.41C607.934 105.41 607.238 105.317 606.565 105.13C605.896 104.944 605.289 104.671 604.743 104.311V102.489C605.243 102.871 605.821 103.167 606.476 103.376C607.136 103.586 607.798 103.69 608.462 103.69C608.963 103.69 609.34 103.615 609.595 103.465C609.85 103.315 609.977 103.108 609.977 102.844C609.977 102.653 609.912 102.487 609.78 102.346C609.652 102.2 609.402 102.08 609.029 101.984L607.247 101.561C606.374 101.347 605.744 101.049 605.357 100.667C604.975 100.285 604.784 99.8068 604.784 99.2335C604.784 98.7421 604.936 98.3099 605.241 97.9368C605.55 97.5637 605.992 97.2747 606.565 97.07C607.143 96.8607 607.818 96.756 608.592 96.756C609.293 96.756 609.93 96.8379 610.503 97.0017C611.076 97.161 611.57 97.3748 611.984 97.6433V99.4042C611.565 99.1175 611.085 98.89 610.544 98.7217C610.003 98.5487 609.427 98.4623 608.817 98.4623C608.276 98.4623 607.871 98.5305 607.602 98.6671C607.334 98.799 607.2 98.9856 607.2 99.2267C607.2 99.4269 607.291 99.5862 607.473 99.7045C607.659 99.8228 607.966 99.9297 608.394 100.025L609.991 100.373C610.792 100.537 611.399 100.808 611.813 101.186C612.227 101.563 612.435 102.093 612.435 102.776C612.435 103.299 612.284 103.761 611.984 104.161C611.688 104.557 611.256 104.864 610.687 105.083C610.119 105.301 609.441 105.41 608.653 105.41ZM620.641 103.465V105.165H613.392V103.643L616.313 101.575C616.787 101.247 617.155 100.947 617.419 100.674C617.683 100.401 617.867 100.141 617.972 99.8956C618.077 99.6499 618.129 99.3882 618.129 99.1107C618.129 98.6511 617.958 98.2848 617.617 98.0118C617.276 97.7343 616.789 97.5955 616.156 97.5955C615.62 97.5955 615.105 97.6956 614.614 97.8958C614.127 98.096 613.713 98.3554 613.372 98.6739V96.6332C614.355 95.9689 615.483 95.6367 616.757 95.6367C617.531 95.6367 618.199 95.7618 618.764 96.0121C619.332 96.2623 619.767 96.6195 620.067 97.0836C620.368 97.5477 620.518 98.0892 620.518 98.708C620.518 99.3678 620.324 99.982 619.938 100.551C619.555 101.12 618.927 101.695 618.054 102.278L616.32 103.465H620.641ZM628.014 105.165L624.465 100.899V105.165H622.076V95.0975H624.465V100.271L627.755 97.0905H630.635L626.874 100.558L630.901 105.165H628.014Z" fill="white" fill-opacity="0.9"/><rect x="547.5" y="28.5" width="167" height="89" rx="7.5" stroke="#3D4B41"/><path d="M652.54 322.034C652.541 321.647 652.54 322.422 652.54 322.034C652.54 164.704 525.046 36 367.771 36C210.496 36 83 163.541 83 320.871C83 321.259 83.0008 321.647 83.0023 322.034C83.0023 322.034 430.122 322.034 652.54 322.034Z" fill="white" fill-opacity="0.9"/><path d="M83 320.871C83 163.541 210.495 36 367.77 36M653 320.871C653 163.541 525.504 36 368.229 36" stroke="#3D4B41" stroke-width="0.980645"/><path d="M356.414 12.503L365.017 121.726C365.258 124.785 369.742 124.785 369.983 121.726L378.586 12.503C379.095 6.03735 373.986 0.509674 367.5 0.509673C361.014 0.509672 355.905 6.03735 356.414 12.503Z" fill="white" fill-opacity="0.94" stroke="#3D4B41" stroke-width="0.980645"/><path d="M497.705 52.2204L454.431 145.256C453.432 147.404 456.419 149.129 457.78 147.189L516.714 63.1955C520.429 57.9006 518.805 50.5594 513.204 47.3253C507.602 44.0912 500.433 46.3555 497.705 52.2204Z" fill="white" fill-opacity="0.94" stroke="#3D4B41" stroke-width="0.980645"/><path d="M237.213 52.2204L277.869 139.627C279.151 142.383 275.318 144.596 273.572 142.107L218.204 63.1955C214.489 57.9006 216.112 50.5594 221.714 47.3253C227.316 44.0912 234.485 46.3555 237.213 52.2204Z" fill="white" fill-opacity="0.94" stroke="#3D4B41" stroke-width="0.980645"/><path d="M169.979 157.53L223.974 198.225C226.194 199.898 224.194 203.362 221.635 202.276L159.395 175.863C153.499 173.36 151.123 166.261 154.326 160.714C157.528 155.167 164.864 153.675 169.979 157.53Z" fill="white" fill-opacity="0.94" stroke="#3D4B41" stroke-width="0.980645"/><path d="M565.58 157.53L511.586 198.225C509.366 199.898 511.366 203.362 513.925 202.276L576.165 175.863C582.061 173.36 584.437 166.261 581.234 160.714C578.031 155.167 570.696 153.675 565.58 157.53Z" fill="white" fill-opacity="0.94" stroke="#3D4B41" stroke-width="0.980645"/><path fill-rule="evenodd" clip-rule="evenodd" d="M421.667 198.179C433.555 188.298 446.819 184.538 459.538 185.489C473.108 186.502 485.664 192.839 495.041 202.042C504.419 211.246 510.861 223.557 511.893 236.844C512.933 250.251 508.428 264.294 496.547 276.618C495.46 277.753 494.35 278.873 493.216 279.979C439.331 332.86 367.752 333 367.019 333H367.016C366.65 333 294.844 332.997 240.819 279.972L240.807 279.96C239.692 278.859 238.593 277.751 237.512 276.635L237.503 276.626C225.617 264.312 221.107 250.273 222.144 236.866C223.172 223.582 229.61 211.269 238.985 202.062C248.359 192.855 260.914 186.514 274.486 185.496C287.205 184.541 300.471 188.296 312.366 198.173C313.645 182.94 320.308 171.084 329.981 162.933C340.297 154.239 353.741 150 367.016 150C380.292 150 393.735 154.239 404.052 162.933C413.726 171.085 420.39 182.943 421.667 198.179ZM369.483 327.638L369.48 327.571L369.485 327.571L369.483 327.638ZM364.549 327.638L364.548 327.571L364.552 327.571L364.549 327.638Z" fill="#3D4B41"/><path opacity="0.94" d="M261.206 171.962L261.208 171.959L263.293 166.222C263.618 165.328 264.322 164.624 265.216 164.299L270.948 162.213C270.949 162.213 270.95 162.213 270.95 162.213C271.406 162.05 271.801 161.749 272.078 161.353C272.356 160.956 272.503 160.484 272.5 160C272.503 159.516 272.356 159.044 272.078 158.647C271.801 158.251 271.406 157.95 270.95 157.787C270.949 157.787 270.949 157.787 270.948 157.787L265.219 155.709C264.324 155.384 263.618 154.679 263.293 153.783L261.208 148.041L261.208 148.041L261.206 148.038C261.039 147.586 260.737 147.197 260.342 146.922C259.947 146.647 259.477 146.5 258.996 146.5C258.515 146.5 258.045 146.647 257.65 146.922C257.255 147.197 256.953 147.586 256.786 148.038L256.784 148.041L254.706 153.775C254.381 154.671 253.676 155.376 252.781 155.702L247.04 157.788L247.04 157.788L247.037 157.789C246.586 157.957 246.197 158.258 245.922 158.654C245.647 159.049 245.5 159.519 245.5 160C245.5 160.481 245.647 160.951 245.922 161.346C246.197 161.742 246.586 162.043 247.037 162.211L247.041 162.212L252.773 164.291C253.668 164.616 254.374 165.321 254.699 166.217L256.784 171.959L256.786 171.962C256.953 172.414 257.255 172.803 257.65 173.078C258.045 173.353 258.515 173.5 258.996 173.5C259.477 173.5 259.947 173.353 260.342 173.078C260.737 172.803 261.039 172.414 261.206 171.962Z" fill="white" fill-opacity="0.9" stroke="#3D4B41"/><path opacity="0.94" d="M284.838 192.568L284.838 192.568C284.736 192.842 284.553 193.078 284.314 193.244C284.074 193.411 283.79 193.5 283.498 193.5C283.206 193.5 282.922 193.411 282.682 193.244C282.443 193.078 282.26 192.842 282.158 192.568L282.157 192.565L282.157 192.565L281.114 189.694C280.977 189.316 280.679 189.018 280.301 188.881L277.435 187.841L277.432 187.84L277.432 187.84C277.158 187.738 276.922 187.555 276.756 187.316C276.589 187.076 276.5 186.792 276.5 186.5C276.5 186.208 276.589 185.924 276.756 185.684C276.922 185.445 277.158 185.262 277.432 185.16L277.435 185.159L277.435 185.159L280.305 184.116C280.683 183.979 280.981 183.681 281.118 183.302L282.157 180.435L282.158 180.432L282.158 180.432C282.26 180.158 282.443 179.922 282.682 179.756C282.922 179.589 283.206 179.5 283.498 179.5C283.79 179.5 284.074 179.589 284.314 179.756C284.553 179.922 284.736 180.158 284.838 180.432L284.839 180.435L284.839 180.435L285.882 183.306C286.019 183.684 286.317 183.982 286.695 184.119L289.558 185.158C289.559 185.158 289.559 185.158 289.56 185.158C289.836 185.257 290.075 185.44 290.244 185.68C290.412 185.921 290.501 186.207 290.5 186.5C290.5 186.501 290.5 186.503 290.5 186.504L290 186.5C290.001 186.691 289.944 186.877 289.834 187.033C289.725 187.189 289.57 187.307 289.39 187.371L284.838 192.568ZM284.838 192.568L284.839 192.565L285.881 189.697C286.018 189.319 286.316 189.022 286.693 188.884L289.558 187.842C289.559 187.842 289.559 187.842 289.56 187.841L284.838 192.568Z" fill="white" fill-opacity="0.9" stroke="#3D4B41"/><path opacity="0.94" d="M235.704 178.661L235.704 178.661L235.705 178.658L236.587 176.231C236.696 175.933 236.93 175.698 237.228 175.59L239.652 174.708C239.652 174.708 239.653 174.708 239.654 174.707C239.903 174.618 240.118 174.454 240.269 174.238C240.421 174.021 240.501 173.764 240.5 173.5C240.501 173.236 240.421 172.979 240.269 172.762C240.118 172.546 239.902 172.381 239.653 172.292C239.653 172.292 239.652 172.292 239.652 172.292L237.23 171.413C236.931 171.305 236.696 171.07 236.587 170.771L235.705 168.342L235.705 168.342L235.704 168.339C235.613 168.093 235.448 167.88 235.233 167.73C235.017 167.58 234.761 167.5 234.498 167.5C234.236 167.5 233.98 167.58 233.764 167.73C233.549 167.88 233.384 168.093 233.293 168.339L233.293 168.339L233.291 168.342L232.412 170.768C232.304 171.067 232.069 171.302 231.77 171.41L229.342 172.293L229.342 172.293L229.338 172.294C229.092 172.386 228.88 172.55 228.73 172.766C228.58 172.981 228.5 173.237 228.5 173.5C228.5 173.763 228.58 174.019 228.73 174.234C228.88 174.45 229.092 174.614 229.338 174.706L229.338 174.706L229.342 174.707L231.767 175.587C232.066 175.695 232.301 175.93 232.409 176.229L233.292 178.658L233.292 178.658L233.293 178.661C233.384 178.907 233.549 179.12 233.764 179.27C233.98 179.42 234.236 179.5 234.498 179.5C234.761 179.5 235.017 179.42 235.233 179.27C235.448 179.12 235.613 178.907 235.704 178.661Z" fill="white" fill-opacity="0.9" stroke="#3D4B41"/><path opacity="0.94" d="M195.437 143.848L195.437 143.848L195.438 143.845L195.999 142.3C196.05 142.161 196.159 142.051 196.298 142.001L197.841 141.439C198.035 141.37 198.202 141.242 198.32 141.074C198.438 140.906 198.501 140.705 198.5 140.5C198.501 140.295 198.438 140.094 198.32 139.926C198.202 139.758 198.035 139.63 197.841 139.561L196.299 139.001C196.16 138.951 196.05 138.841 195.999 138.702L195.438 137.156L195.438 137.156L195.437 137.152C195.366 136.961 195.238 136.796 195.07 136.679C194.902 136.563 194.703 136.5 194.499 136.5C194.295 136.5 194.095 136.563 193.928 136.679C193.76 136.796 193.632 136.961 193.561 137.152L193.561 137.152L193.56 137.156L193 138.7C192.95 138.839 192.84 138.949 192.701 138.999L191.155 139.561L191.155 139.561L191.152 139.562C190.961 139.633 190.796 139.761 190.679 139.929C190.562 140.097 190.5 140.296 190.5 140.5C190.5 140.704 190.562 140.903 190.679 141.071C190.796 141.239 190.961 141.367 191.152 141.438L191.152 141.438L191.156 141.439L192.699 141.999C192.838 142.049 192.948 142.159 192.999 142.298L193.56 143.844L193.56 143.844L193.561 143.848C193.632 144.039 193.76 144.204 193.928 144.321C194.095 144.437 194.295 144.5 194.499 144.5C194.703 144.5 194.902 144.437 195.07 144.321C195.238 144.204 195.366 144.039 195.437 143.848Z" fill="white" fill-opacity="0.9" stroke="#3D4B41"/><path opacity="0.94" d="M468.794 301.962L468.792 301.959L466.707 296.222C466.382 295.328 465.678 294.624 464.784 294.299L459.052 292.213C459.051 292.213 459.05 292.213 459.05 292.213C458.594 292.05 458.199 291.749 457.922 291.353C457.644 290.956 457.497 290.484 457.5 290C457.497 289.516 457.644 289.044 457.922 288.647C458.199 288.251 458.594 287.95 459.05 287.787C459.051 287.787 459.051 287.787 459.052 287.787L464.781 285.709C465.676 285.384 466.382 284.679 466.707 283.783L468.792 278.041L468.792 278.041L468.794 278.038C468.961 277.586 469.263 277.197 469.658 276.922C470.053 276.647 470.523 276.5 471.004 276.5C471.485 276.5 471.955 276.647 472.35 276.922C472.745 277.197 473.047 277.586 473.214 278.038L473.216 278.041L475.294 283.775C475.619 284.671 476.324 285.376 477.219 285.702L482.96 287.788L482.96 287.788L482.963 287.789C483.414 287.957 483.803 288.258 484.078 288.654C484.353 289.049 484.5 289.519 484.5 290C484.5 290.481 484.353 290.951 484.078 291.346C483.803 291.742 483.414 292.043 482.963 292.211L482.959 292.212L477.227 294.291C476.332 294.616 475.626 295.321 475.301 296.217L473.216 301.959L473.214 301.962C473.047 302.414 472.745 302.803 472.35 303.078C471.955 303.353 471.485 303.5 471.004 303.5C470.523 303.5 470.053 303.353 469.658 303.078C469.263 302.803 468.961 302.414 468.794 301.962Z" fill="white" fill-opacity="0.9" stroke="#3D4B41"/><path opacity="0.94" d="M454.162 327.568L454.162 327.568C454.264 327.842 454.447 328.078 454.686 328.244C454.926 328.411 455.21 328.5 455.502 328.5C455.794 328.5 456.078 328.411 456.318 328.244C456.557 328.078 456.74 327.842 456.842 327.568L456.843 327.565L456.843 327.565L457.886 324.694C458.023 324.316 458.321 324.018 458.699 323.881L461.565 322.841L461.568 322.84L461.568 322.84C461.842 322.738 462.078 322.555 462.244 322.316C462.411 322.076 462.5 321.792 462.5 321.5C462.5 321.208 462.411 320.924 462.244 320.684C462.078 320.445 461.842 320.262 461.568 320.16L461.565 320.159L461.565 320.159L458.695 319.116C458.317 318.979 458.019 318.681 457.882 318.302L456.843 315.435L456.842 315.432L456.842 315.432C456.74 315.158 456.557 314.922 456.318 314.756C456.078 314.589 455.794 314.5 455.502 314.5C455.21 314.5 454.926 314.589 454.686 314.756C454.447 314.922 454.264 315.158 454.162 315.432L454.161 315.435L454.161 315.435L453.118 318.306C452.981 318.684 452.683 318.982 452.305 319.119L449.442 320.158C449.441 320.158 449.441 320.158 449.44 320.158C449.164 320.257 448.925 320.44 448.756 320.68C448.588 320.921 448.499 321.207 448.5 321.5C448.5 321.501 448.5 321.503 448.5 321.504L449 321.5C448.999 321.691 449.056 321.877 449.166 322.033C449.275 322.189 449.43 322.307 449.61 322.371L454.162 327.568ZM454.162 327.568L454.161 327.565L453.119 324.697C452.982 324.319 452.684 324.022 452.307 323.884L449.442 322.842C449.441 322.842 449.441 322.842 449.44 322.841L454.162 327.568Z" fill="white" fill-opacity="0.9" stroke="#3D4B41"/><path opacity="0.94" d="M516.296 295.661L516.296 295.661L516.295 295.658L515.413 293.231C515.304 292.933 515.07 292.698 514.772 292.59L512.348 291.708C512.348 291.708 512.347 291.708 512.346 291.707C512.097 291.618 511.882 291.454 511.731 291.238C511.579 291.021 511.499 290.764 511.5 290.5C511.499 290.236 511.579 289.979 511.731 289.762C511.882 289.546 512.098 289.381 512.347 289.292C512.347 289.292 512.348 289.292 512.348 289.292L514.77 288.413C515.069 288.305 515.304 288.07 515.413 287.771L516.295 285.342L516.295 285.342L516.296 285.339C516.387 285.093 516.552 284.88 516.767 284.73C516.983 284.58 517.239 284.5 517.502 284.5C517.764 284.5 518.02 284.58 518.236 284.73C518.451 284.88 518.616 285.093 518.707 285.339L518.707 285.339L518.709 285.342L519.588 287.768C519.696 288.067 519.931 288.302 520.23 288.41L522.658 289.293L522.658 289.293L522.662 289.294C522.908 289.386 523.12 289.55 523.27 289.766C523.42 289.981 523.5 290.237 523.5 290.5C523.5 290.763 523.42 291.019 523.27 291.234C523.12 291.45 522.908 291.614 522.662 291.706L522.662 291.706L522.658 291.707L520.233 292.587C519.934 292.695 519.699 292.93 519.591 293.229L518.708 295.658L518.708 295.658L518.707 295.661C518.616 295.907 518.451 296.12 518.236 296.27C518.02 296.42 517.764 296.5 517.502 296.5C517.239 296.5 516.983 296.42 516.767 296.27C516.552 296.12 516.387 295.907 516.296 295.661Z" fill="white" fill-opacity="0.9" stroke="#3D4B41"/><path opacity="0.94" d="M494.563 168.848L494.563 168.848L494.562 168.845L494.001 167.3C493.95 167.161 493.841 167.051 493.702 167.001L492.159 166.439C491.965 166.37 491.798 166.242 491.68 166.074C491.562 165.906 491.499 165.705 491.5 165.5C491.499 165.295 491.562 165.094 491.68 164.926C491.798 164.758 491.965 164.63 492.159 164.561L493.701 164.001C493.84 163.951 493.95 163.841 494.001 163.702L494.562 162.156L494.562 162.156L494.563 162.152C494.634 161.961 494.762 161.796 494.93 161.679C495.098 161.563 495.297 161.5 495.501 161.5C495.705 161.5 495.905 161.563 496.072 161.679C496.24 161.796 496.368 161.961 496.439 162.152L496.439 162.152L496.44 162.156L497 163.7C497.05 163.839 497.16 163.949 497.299 163.999L498.845 164.561L498.845 164.561L498.848 164.562C499.039 164.633 499.204 164.761 499.321 164.929C499.438 165.097 499.5 165.296 499.5 165.5C499.5 165.704 499.438 165.903 499.321 166.071C499.204 166.239 499.039 166.367 498.848 166.438L498.848 166.438L498.844 166.439L497.301 166.999C497.162 167.049 497.052 167.159 497.001 167.298L496.44 168.844L496.44 168.844L496.439 168.848C496.368 169.039 496.24 169.204 496.072 169.321C495.905 169.437 495.705 169.5 495.501 169.5C495.297 169.5 495.098 169.437 494.93 169.321C494.762 169.204 494.634 169.039 494.563 168.848Z" fill="white" fill-opacity="0.9" stroke="#3D4B41"/><rect x="35" y="239" width="138" height="36" rx="18" fill="#3D4B41"/><path d="M72.1451 262.453C70.7768 262.453 69.5958 262.224 68.6023 261.765C67.6135 261.301 66.8614 260.668 66.3459 259.867C65.8304 259.061 65.5727 258.151 65.5727 257.139C65.5727 256.113 65.8351 255.19 66.36 254.37C66.8848 253.545 67.651 252.896 68.6586 252.423C69.6661 251.949 70.8634 251.713 72.2506 251.713C73.0988 251.713 73.8744 251.797 74.5773 251.966C75.2849 252.134 75.9574 252.378 76.5947 252.697V255.67C76.187 255.384 75.6762 255.152 75.0623 254.974C74.4531 254.796 73.8041 254.707 73.1152 254.707C72.3607 254.707 71.7117 254.805 71.1681 255.002C70.6244 255.199 70.2097 255.476 69.9239 255.832C69.6427 256.183 69.5021 256.591 69.5021 257.055C69.5021 257.523 69.645 257.938 69.9309 258.299C70.2214 258.655 70.6385 258.934 71.1821 259.136C71.7257 259.332 72.3701 259.431 73.1152 259.431C73.8275 259.431 74.4906 259.337 75.1045 259.15C75.7184 258.957 76.2245 258.702 76.6228 258.383V261.287C75.934 261.69 75.2381 261.985 74.5351 262.172C73.8369 262.36 73.0402 262.453 72.1451 262.453ZM83.8654 262.453C82.5579 262.453 81.4075 262.212 80.414 261.729C79.4205 261.247 78.6543 260.593 78.1154 259.768C77.5764 258.943 77.307 258.03 77.307 257.027C77.307 256.005 77.5741 255.094 78.1083 254.292C78.6473 253.486 79.4135 252.856 80.4069 252.401C81.4004 251.942 82.5579 251.713 83.8795 251.713C85.1916 251.713 86.3421 251.942 87.3309 252.401C88.3244 252.856 89.0882 253.486 89.6224 254.292C90.1614 255.094 90.4308 256.005 90.4308 257.027C90.4308 258.034 90.159 258.95 89.6154 259.775C89.0765 260.6 88.3103 261.254 87.3168 261.736C86.3233 262.214 85.1729 262.453 83.8654 262.453ZM83.8654 259.529C84.4043 259.529 84.8776 259.426 85.2853 259.22C85.693 259.009 86.007 258.716 86.2273 258.341C86.4475 257.966 86.5576 257.538 86.5576 257.055C86.5576 256.577 86.4475 256.155 86.2273 255.79C86.007 255.424 85.693 255.141 85.2853 254.939C84.8776 254.738 84.4043 254.637 83.8654 254.637C83.3218 254.637 82.8461 254.738 82.4384 254.939C82.0307 255.141 81.7144 255.424 81.4895 255.79C81.2692 256.155 81.1591 256.577 81.1591 257.055C81.1591 257.538 81.2692 257.966 81.4895 258.341C81.7144 258.716 82.0307 259.009 82.4384 259.22C82.8461 259.426 83.3218 259.529 83.8654 259.529ZM100.654 259.185V262.123H91.3961V252.043H94.9952V259.185H100.654ZM110.617 259.185V262.123H101.359V252.043H104.958V259.185H110.617ZM120.706 259.557V262.123H111.322V252.043H120.664V254.609H114.921V255.846H120.376V258.208H114.921V259.557H120.706ZM127.878 262.453C126.51 262.453 125.329 262.224 124.336 261.765C123.347 261.301 122.595 260.668 122.079 259.867C121.564 259.061 121.306 258.151 121.306 257.139C121.306 256.113 121.568 255.19 122.093 254.37C122.618 253.545 123.384 252.896 124.392 252.423C125.399 251.949 126.597 251.713 127.984 251.713C128.832 251.713 129.608 251.797 130.311 251.966C131.018 252.134 131.691 252.378 132.328 252.697V255.67C131.92 255.384 131.41 255.152 130.796 254.974C130.186 254.796 129.537 254.707 128.848 254.707C128.094 254.707 127.445 254.805 126.901 255.002C126.358 255.199 125.943 255.476 125.657 255.832C125.376 256.183 125.235 256.591 125.235 257.055C125.235 257.523 125.378 257.938 125.664 258.299C125.955 258.655 126.372 258.934 126.915 259.136C127.459 259.332 128.103 259.431 128.848 259.431C129.561 259.431 130.224 259.337 130.838 259.15C131.452 258.957 131.958 258.702 132.356 258.383V261.287C131.667 261.69 130.971 261.985 130.268 262.172C129.57 262.36 128.774 262.453 127.878 262.453ZM143.303 254.883H139.873V262.123H136.274V254.883H132.78V252.043H143.303V254.883Z" fill="white" fill-opacity="0.9"/><path opacity="0.94" d="M156.659 300.199L145.779 269.949C144.851 267.368 147.345 264.87 149.923 265.8L180.132 276.694C182.775 277.648 183.035 281.289 180.554 282.608L172.757 286.756C172.403 286.944 172.332 287.421 172.615 287.704L182.299 297.402C183.649 298.753 183.649 300.945 182.299 302.296C180.949 303.648 178.761 303.648 177.411 302.296L167.705 292.576C167.422 292.293 166.945 292.364 166.757 292.718L162.565 300.622C161.247 303.106 157.611 302.846 156.659 300.199Z" fill="white" fill-opacity="0.9" stroke="#3D4B41"/><g opacity="0.94"><rect x="571.5" y="245.5" width="146" height="61.9772" rx="30.9886" fill="white" fill-opacity="0.9"/><path d="M625.495 270.688C626.576 270.688 627.485 270.88 628.223 271.263C628.966 271.641 629.524 272.176 629.896 272.867C630.273 273.558 630.462 274.369 630.462 275.298C630.462 276.216 630.247 277.026 629.817 277.729C629.393 278.427 628.757 278.973 627.909 279.368C627.061 279.757 626.027 279.952 624.807 279.952H621.321V283.202H616.859V270.688H625.495ZM623.639 277.119C624.365 277.119 624.92 276.971 625.303 276.675C625.693 276.373 625.887 275.955 625.887 275.42C625.887 274.903 625.713 274.502 625.364 274.218C625.022 273.927 624.531 273.782 623.892 273.782H621.321V277.119H623.639ZM638.83 283.612C637.209 283.612 635.782 283.312 634.551 282.714C633.319 282.116 632.369 281.305 631.701 280.283C631.033 279.26 630.699 278.127 630.699 276.884C630.699 275.618 631.03 274.488 631.693 273.494C632.361 272.495 633.311 271.714 634.542 271.15C635.774 270.581 637.209 270.296 638.847 270.296C640.474 270.296 641.9 270.581 643.126 271.15C644.357 271.714 645.304 272.495 645.967 273.494C646.635 274.488 646.969 275.618 646.969 276.884C646.969 278.133 646.632 279.269 645.958 280.291C645.29 281.314 644.34 282.124 643.108 282.723C641.877 283.315 640.45 283.612 638.83 283.612ZM638.83 279.986C639.498 279.986 640.084 279.859 640.59 279.603C641.095 279.342 641.485 278.978 641.758 278.514C642.031 278.049 642.167 277.517 642.167 276.919C642.167 276.326 642.031 275.804 641.758 275.35C641.485 274.897 641.095 274.546 640.59 274.296C640.084 274.046 639.498 273.921 638.83 273.921C638.156 273.921 637.566 274.046 637.061 274.296C636.555 274.546 636.163 274.897 635.884 275.35C635.611 275.804 635.475 276.326 635.475 276.919C635.475 277.517 635.611 278.049 635.884 278.514C636.163 278.978 636.555 279.342 637.061 279.603C637.566 279.859 638.156 279.986 638.83 279.986ZM653.75 283.577C652.571 283.577 651.464 283.437 650.43 283.158C649.402 282.874 648.504 282.496 647.737 282.026V278.793C648.527 279.286 649.399 279.679 650.352 279.969C651.304 280.254 652.272 280.396 653.253 280.396C653.962 280.396 654.488 280.332 654.831 280.204C655.173 280.076 655.345 279.873 655.345 279.594C655.345 279.35 655.226 279.156 654.988 279.01C654.749 278.865 654.325 278.74 653.715 278.636L651.938 278.313C650.456 278.046 649.37 277.59 648.678 276.945C647.993 276.3 647.65 275.446 647.65 274.383C647.65 273.576 647.885 272.87 648.356 272.266C648.832 271.656 649.547 271.182 650.5 270.845C651.458 270.502 652.638 270.331 654.038 270.331C655.234 270.331 656.266 270.453 657.131 270.697C658.003 270.941 658.72 271.237 659.284 271.586V274.688C658.755 274.392 658.081 274.136 657.262 273.921C656.449 273.706 655.566 273.599 654.613 273.599C653.079 273.599 652.312 273.849 652.312 274.348C652.312 274.488 652.353 274.604 652.434 274.697C652.521 274.784 652.67 274.86 652.879 274.923C653.088 274.987 653.387 275.045 653.776 275.098L655.772 275.42C656.754 275.583 657.555 275.824 658.177 276.143C658.799 276.457 659.263 276.873 659.571 277.39C659.879 277.901 660.033 278.534 660.033 279.289C660.033 280.149 659.772 280.904 659.249 281.555C658.732 282.2 657.997 282.699 657.044 283.054C656.097 283.402 654.999 283.577 653.75 283.577ZM673.071 274.226H668.819V283.202H664.357V274.226H660.026V270.706H673.071V274.226Z" fill="#3D4B41"/><rect x="571.5" y="245.5" width="146" height="61.9772" rx="30.9886" stroke="#3D4B41"/></g><defs><filter id="filter0_d_6325_48003" x="97.4637" y="72.6582" width="182.777" height="16.7951" filterUnits="userSpaceOnUse" color-interpolation-filters="sRGB"><feFlood flood-opacity="0" result="BackgroundImageFix"/><feColorMatrix in="SourceAlpha" type="matrix" values="0 0 0 0 0 0 0 0 0 0 0 0 0 0 0 0 0 0 127 0" result="hardAlpha"/><feOffset/><feGaussianBlur stdDeviation="1.58015"/><feComposite in2="hardAlpha" operator="out"/><feColorMatrix type="matrix" values="0 0 0 0 0 0 0 0 0 0 0 0 0 0 0 0 0 0 0.05 0"/><feBlend mode="normal" in2="BackgroundImageFix" result="effect1_dropShadow_6325_48003"/><feBlend mode="normal" in="SourceGraphic" in2="effect1_dropShadow_6325_48003" result="shape"/></filter><filter id="filter1_d_6325_48003" x="97.4754" y="94.64" width="158.139" height="29.1555" filterUnits="userSpaceOnUse" color-interpolation-filters="sRGB"><feFlood flood-opacity="0" result="BackgroundImageFix"/><feColorMatrix in="SourceAlpha" type="matrix" values="0 0 0 0 0 0 0 0 0 0 0 0 0 0 0 0 0 0 127 0" result="hardAlpha"/><feOffset/><feGaussianBlur stdDeviation="1.58015"/><feComposite in2="hardAlpha" operator="out"/><feColorMatrix type="matrix" values="0 0 0 0 0 0 0 0 0 0 0 0 0 0 0 0 0 0 0.05 0"/><feBlend mode="normal" in2="BackgroundImageFix" result="effect1_dropShadow_6325_48003"/><feBlend mode="normal" in="SourceGraphic" in2="effect1_dropShadow_6325_48003" result="shape"/></filter><clipPath id="clip0_6325_48003"><rect x="41" y="17" width="253" height="121.666" rx="22.5663" fill="white"/></clipPath><clipPath id="clip1_6325_48003"><rect x="55.5029" y="29.8917" width="33.8495" height="33.8495" rx="16.9248" fill="white"/></clipPath></defs></svg>